<svg>
<defs>
<font id="AvalonQuestSWFTE" horiz-adv-x="567" >
  <font-face 
    font-family="AvalonQuest"
    font-weight="400"
    font-stretch="normal"
    units-per-em="1000"
    panose-1="0 0 4 0 0 0 0 0 0 0"
    ascent="800"
    descent="-200"
    x-height="355"
    cap-height="473"
    bbox="-298 -204 1700 800"
    underline-thickness="70"
    underline-position="-115"
    unicode-range="U+0020-U+F002"
  />
<missing-glyph horiz-adv-x="500" 
d="M63 0v800h375v-800h-375zM125 63h250v675h-250v-675z" />
    <glyph glyph-name=".notdef" horiz-adv-x="500" 
d="M63 0v800h375v-800h-375zM125 63h250v675h-250v-675z" />
    <glyph glyph-name=".null" horiz-adv-x="0" 
 />
    <glyph glyph-name="nonmarkingreturn" horiz-adv-x="240" 
 />
    <glyph glyph-name="space" unicode=" " horiz-adv-x="240" 
 />
    <glyph glyph-name="exclam" unicode="!" horiz-adv-x="190" 
d="M188 458l-26 -311l-14 -13l-14 13l-26 311l40 39zM207 37l-59 -59l-59 58q33 28 59 60q26 -33 59 -59z" />
    <glyph glyph-name="quotedbl" unicode="&#x22;" horiz-adv-x="346" 
d="M353 437l-49 -115l-53 126q15 11 53 49l49 -49v-11zM181 448l-50 -126l-51 116v10l49 49q34 -34 52 -49z" />
    <glyph glyph-name="numbersign" unicode="#" horiz-adv-x="342" 
d="M363 331h-58l-6 -5q-6 -44 -7 -66l6 -2h42l1 -42q-11 2 -31 4q-13 0 -28 -3q-1 -17 -5.5 -51t-6.5 -51h-41q5 34 17 102h-94l-16 -102h-40q1 11 8 45q6 28 6 45q0 10 -1 15h-51v38h57q5 24 16 71q-25 6 -54 -1v44q10 -1 28 -3q17 0 32 3q5 33 13 99h41q-1 -9 -8 -41
q-5 -26 -5 -40l3 -18h87q5 33 13 99h40q-1 -11 -6.5 -38.5t-5.5 -41.5q0 -1 3 -22h51v-38zM261 331h-92l-9 -73l88 1q7 22 13 72z" />
    <glyph glyph-name="dollar" unicode="$" horiz-adv-x="363" 
d="M385 124q1 -97 -121 -136v-42h-44q3 10 3 24q0 10 -3 21l-4 -1q-39 -2 -76.5 31.5t-46.5 73.5q23 11 68 29l5 -8q-6 -2 -20 -16l1 -9q0 -2 13 -22q41 -31 57 -31l6 3l-1 189q-57 31 -76 49q-34 32 -34 79q1 93 111 122v35h41v-38q31 -4 61 -26.5t44 -51.5l-27.5 -24.5
t-28.5 -24.5l-4 8l12 23q1 14 -18.5 31t-33.5 17q-1 4 -4 4q-1 -1 -1 -3v-163q59 -29 84 -54q37 -36 37 -89zM223 290v139q-60 -16 -59 -69q1 -38 59 -70zM335 124q0 39 -69 83l-1 -169q70 19 70 86z" />
    <glyph glyph-name="percent" unicode="%" horiz-adv-x="579" 
d="M608 127q0 -53 -38 -90t-91 -37q-54 0 -91 37t-37 91q0 53 37.5 90t90.5 37q54 0 91.5 -37t37.5 -91zM493 471l-284 -470h-43l284 470h43zM309 346q0 -53 -38.5 -90t-90.5 -37t-90.5 37t-38.5 89t38.5 89t90.5 37q53 0 91 -36.5t38 -88.5zM528 198q-18 18 -49 18
q-36 0 -62 -27t-27 -63q0 -13 15 -47zM566 126q0 5 -11 45l-123 -120q28 -14 43 -14q38 0 64.5 26t26.5 63zM267 345q0 28 -15 46l-119 -120q28 -14 43 -14q37 0 64 25t27 63zM228 418q-30 14 -50 14q-35 0 -61 -26.5t-25 -60.5q0 -12 13 -50z" />
    <glyph glyph-name="ampersand" unicode="&#x26;" horiz-adv-x="570" 
d="M592 -3h-91l-75 92l-81 -68q-48 -34 -96 -34q-62 0 -107.5 45.5t-45.5 107.5q0 77 72 135q-41 35 -41 90q0 48 36.5 83.5t84.5 35.5q49 0 85 -35t36 -84q0 -51 -42 -90q16 -12 44 -40l55 -66q28 18 42 43q-2 6 -6.5 16.5l-6.5 15.5l10 3l80 -92l-6 -8q-3 2 -25 15l-13 1
q-13 1 -42 -38l42 -54q25 -31 46 -50q16 -7 45 -24zM318 365q0 28 -21 50t-49 22t-48.5 -22t-20.5 -51t20.5 -50t48.5 -21q29 0 49.5 21.5t20.5 50.5zM389 130l-60 74q-40 41 -81 41q-42 0 -71.5 -31.5t-29.5 -73.5t30.5 -73.5t72.5 -31.5q35 0 76 35z" />
    <glyph glyph-name="quotesingle" unicode="'" horiz-adv-x="163" 
d="M181 445l-52 -127l-53 127l53 52z" />
    <glyph glyph-name="parenleft" unicode="(" horiz-adv-x="272" 
d="M303 -84q-4 -4 -11 -12.5t-10 -11.5l-126 96v489l126 96q3 -3 10 -11.5t11 -12.5l-102 -99v-435z" />
    <glyph glyph-name="parenright" unicode=")" horiz-adv-x="247" 
d="M232 -12l-129 -96q-6 8 -17 27l102 96v435l-103 103q10 8 18 20l129 -96v-489z" />
    <glyph glyph-name="asterisk" unicode="*" horiz-adv-x="281" 
d="M302 281q-17 -5 -53 -13q0 17 -14.5 26l-28.5 18v-46l14 -16l-37 -37l-37 37l14 16v47l-40 -25q0 -3 -1.5 -10t-1.5 -11q-17 5 -53 13q7 16 13 54q7 -1 20 -7q14 7 40 23q-11 8 -34 23l-8 -1q-8 0 -14 -6q-5 18 -17 54q18 5 54 13q0 -3 1.5 -9.5t0.5 -10.5q25 -18 43 -22
v43l-17 17l37 36l37 -36l-14 -17v-46l28.5 18.5t14.5 25.5q18 -4 53 -13q-8 -20 -14 -52q-9 2 -25 6q-12 -7 -34 -24q12 -6 34 -22q7 0 26 7q4 -18 13 -53z" />
    <glyph glyph-name="plus" unicode="+" horiz-adv-x="363" 
d="M381 182q-5 3 -12 24q-6 17 -17 17h-66l1 -66q0 -9 14 -16t23 -4q0 -8 4 -12h-133l3 11q38 0 38 22v65h-66q-13 0 -20 -17q-10 -22 -12 -24v130q2 -2 13 -25q8 -17 20 -17l61 1q2 30 2 46q0 41 -25 41q-5 0 -11 -1l-3 12h133q-4 -4 -4 -12h-5q-10 0 -21 -3
q-12 -12 -12 -18v-66l65 1q12 0 19.5 19.5t10.5 21.5v-130z" />
    <glyph glyph-name="comma" unicode="," horiz-adv-x="183" 
d="M188 37l-104 -104q-17 17 -20 27q15 11 40 38q-7 10 -34 39l59 59z" />
    <glyph glyph-name="hyphen" unicode="-" horiz-adv-x="318" 
d="M308 182q-5 4 -9.5 19t-13.5 18q-15 5 -96 5q-41 0 -44 -38l-7 -4l-1 131q9 -6 10 -18.5t10 -16.5q13 -7 56 -7h18q52 0 58 6q9 18 19 35v-130z" />
    <glyph glyph-name="hyphen" unicode="&#x2010;" horiz-adv-x="318" 
d="M308 182q-5 4 -9.5 19t-13.5 18q-15 5 -96 5q-41 0 -44 -38l-7 -4l-1 131q9 -6 10 -18.5t10 -16.5q13 -7 56 -7h18q52 0 58 6q9 18 19 35v-130z" />
    <glyph glyph-name="period" unicode="." horiz-adv-x="174" 
d="M188 37l-59 -59l-59 59l59 59z" />
    <glyph glyph-name="slash" unicode="/" horiz-adv-x="378" 
d="M420 456l-9 3l1 12q1 14 -13 26h-30l-325 -522h-104v60l9 -3q0 -20 3 -30q8 -9 16 -10q-4 1 23 2l325 522h104v-60z" />
    <glyph glyph-name="zero" unicode="0" horiz-adv-x="593" 
d="M586 236q0 -104 -72.5 -176.5t-175.5 -72.5t-176 72.5t-73 175.5q0 104 73 176.5t176 72.5q104 0 176 -72t72 -176zM458 392q-63 44 -121 44q-83 1 -140.5 -58.5t-57.5 -143.5q0 -56 40 -120zM534 235q0 55 -40 121l-278 -279q61 -43 120 -43q83 0 140.5 59t57.5 142z
" />
    <glyph glyph-name="one" unicode="1" horiz-adv-x="247" 
d="M245 473l-25 -12q-16 -8 -16 -20v-408q0 -12 17 -19q21 -9 24 -13h-133l25 13q16 9 16 20v406q0 14 -16 21q-23 10 -25 12h133z" />
    <glyph glyph-name="two" unicode="2" horiz-adv-x="405" 
d="M401 1h-337q86 84 251 260q29 33 29 70q0 43 -28.5 74.5t-71.5 31.5q-46 0 -75 -32t-29 -77q6 -4 19 -12t19 -13h-89v48q0 52 51 94q49 39 102 39q66 0 109.5 -44t43.5 -110q0 -63 -82 -150l-128 -130l183 -2q11 0 20 17q12 23 13 24v-88z" />
    <glyph glyph-name="three" unicode="3" horiz-adv-x="398" 
d="M414 472l-137 -181l6 -3q59 -31 81 -56q31 -35 31 -92q0 -64 -44 -108.5t-109 -44.5q-53 0 -103 40.5t-50 92.5v48h86q-6 -4 -19 -11.5t-19 -12.5v-22q0 -33 36 -61q33 -26 67 -26q41 0 72.5 31.5t31.5 72.5q0 49 -33.5 76t-83.5 27q-28 0 -55 -6l140 188h-176
q-9 0 -16.5 -14.5t-13.5 -27.5v90h308z" />
    <glyph glyph-name="four" unicode="4" horiz-adv-x="381" 
d="M404 77q-5 3 -12 24q-6 17 -18 17h-59v-85q0 -12 17 -19q22 -10 25 -13h-134l25 13q16 9 16 20v84h-213l266 379v-332h57q12 0 19 18q8 22 11 24v-130zM264 166v175l-121 -175h121z" />
    <glyph glyph-name="five" unicode="5" horiz-adv-x="371" 
d="M395 140q0 -64 -44 -108.5t-109 -44.5q-54 0 -102 40q-51 41 -51 93v51h89l-3 -8l-26 -7q-9 -9 -9 -22q0 -39 32 -69t72 -30q41 0 70.5 32t29.5 73q0 44 -30 74.5t-73 30.5q-54 0 -83 -25q-13 3 -49 10l35 244h225l-1 -92q-4 3 -13 26q-6 16 -25 16l-145 -3
q-14 -98 -17 -148q26 20 74 20q63 0 108 -45t45 -108z" />
    <glyph glyph-name="six" unicode="6" horiz-adv-x="375" 
d="M395 140q0 -64 -44 -108.5t-109 -44.5q-62 0 -107.5 45.5t-45.5 107.5q0 34 14 66l47 78l114 190q10 0 30 1h30q24 0 36 -1l-4 -8q-18 0 -29 -6q-16 -9 -58 -76l-52 -86l2 -4q76 1 124 -38q52 -42 52 -116zM344 140q0 41 -29.5 73t-70.5 32q-42 0 -73 -31.5t-31 -73.5
t30.5 -73.5t72.5 -31.5q41 0 71 32.5t30 72.5z" />
    <glyph glyph-name="seven" unicode="7" horiz-adv-x="389" 
d="M417 472l-192 -472h-94q0 7 18 14l24 8q12 9 24 37q99 242 144 365h-220q-9 0 -16 -14t-7 -24l-11 -4q5 48 -1 90h331z" />
    <glyph glyph-name="eight" unicode="8" horiz-adv-x="377" 
d="M398 142q0 -65 -42.5 -110t-106.5 -45q-62 0 -107.5 45.5t-45.5 107.5q0 77 72 135q-41 35 -41 90q0 48 36.5 83.5t84.5 35.5t84.5 -35t36.5 -83q0 -50 -44 -94q73 -45 73 -130zM318 364q0 28 -21 50t-49 22t-48.5 -22t-20.5 -51t20.5 -50t48.5 -21q29 0 49.5 21.5
t20.5 50.5zM347 139q0 43 -28 74t-71 31q-42 0 -72 -31.5t-30 -73.5t30 -73.5t72 -31.5q43 0 71 31t28 74z" />
    <glyph glyph-name="nine" unicode="9" horiz-adv-x="373" 
d="M395 331q0 -50 -71 -167l-105 -164q-15 0 -45 -1.5t-45 -1.5q-2 4 -2 8q0 3 1 5q26 -2 38 9l105 158v2h-50q-14 0 -46.5 16.5t-43.5 27.5q-42 45 -42 108q0 62 45.5 107.5t107.5 45.5q65 0 109 -44t44 -109zM344 331q0 41 -29.5 73t-70.5 32q-42 0 -73 -31.5t-31 -73.5
t30.5 -73.5t72.5 -31.5q41 0 71 32.5t30 72.5z" />
    <glyph glyph-name="colon" unicode=":" horiz-adv-x="170" 
d="M188 282l-59 -59l-59 59l59 59zM188 37l-59 -59l-59 59l59 59z" />
    <glyph glyph-name="semicolon" unicode=";" horiz-adv-x="167" 
d="M185 282q-36 -34 -56 -59l-59 59l58 60q30 -28 57 -60zM184 33l-101 -99q-9 8 -20 26q15 11 40 38q-10 14 -34 38q31 33 58 57q30 -28 57 -60z" />
    <glyph glyph-name="less" unicode="&#x3c;" horiz-adv-x="369" 
d="M398 94l-110 -87l-8 13q17 23 26 46q-4 19 -22 31q-46 31 -122 72q-110 60 -125 69l148 77q108 60 121 93q-1 15 -26 46l8 14l110 -88l-245 -143z" />
    <glyph glyph-name="equal" unicode="=" horiz-adv-x="404" 
d="M407 274h-327v105q4 -3 12 -24q7 -17 18 -17l267 -1q10 0 17 17q9 22 13 25v-105zM407 112l-8 3v1q0 5 -7 26q-8 8 -15 8h-267q-9 0 -18 -15l-12 -23v101h327v-101z" />
    <glyph glyph-name="greater" unicode="&#x3e;" horiz-adv-x="360" 
d="M400 237q-85 -44 -248 -139q-16 -10 -21 -32q4 -18 25 -45l-7 -14l-114 87l245 143l-245 147l114 84l7 -14q-25 -32 -26 -46q0 -20 44 -44z" />
    <glyph glyph-name="question" unicode="?" horiz-adv-x="361" 
d="M395 334q0 -62 -49 -115q-26 -28 -101 -81v-19q-15 -13 -27 -30l-30 30l3 33l95 81q58 53 58 99q0 43 -29 73.5t-72 30.5q-45 0 -74 -32t-28 -77q6 -10 19 -12.5t18 -11.5h-89l1 48q1 52 52 93q48 40 101 40q64 0 108 -43t44 -107zM261 21l-43 -43l-46 46l45 46l22 -24
t22 -25z" />
    <glyph glyph-name="at" unicode="@" horiz-adv-x="562" 
d="M567 275q0 -63 -40 -113q-42 -54 -103 -54q-6 0 -14 2q-11 2 -15 2q-9 0 -27.5 -5t-27.5 -5q-55 0 -95.5 40.5t-40.5 95.5q0 57 40 96t97 39q22 0 56 -13l39 16l2 -233q41 3 66 45q21 36 21 81q0 76 -54 123q-52 44 -128 44q-85 0 -147 -57.5t-62 -141.5q0 -85 61 -143.5
t146 -58.5q86 0 138 51h84l-2 -9q-20 -1 -54 -24q-48 -33 -68 -43q-47 -23 -100 -23q-101 0 -175.5 74.5t-74.5 175.5q0 103 73 175t176 72q91 0 158 -58q71 -61 71 -151zM395 166l-1 142q-29 17 -53 17q-35 0 -62 -26t-27 -61q0 -36 26.5 -62t61.5 -26q24 0 55 16z" />
    <glyph glyph-name="A" unicode="A" 
d="M577 11l-119 -57q0 9 22 31v22q0 4 -27 53h-293l-21 -35q-6 -13 -6 -40q22 -19 22 -31l-123 58q9 9 38 2q33 33 237 490q33 -76 147 -321q23 -54 73 -156q1 -2 16 -13q12 2 19 2q8 0 15 -5zM433 112l-126 285l-127 -285h253z" />
    <glyph glyph-name="B" unicode="B" horiz-adv-x="375" 
d="M392 143q0 -65 -46 -103t-111 -38l-142 1l24 12q14 7 14 19v406q0 16 -18.5 22t-19.5 12h154q45 0 80.5 -33t35.5 -79q0 -52 -44 -93q74 -42 73 -126zM311 357q0 24 -16 48.5t-40 24.5h-74v-146h74q22 0 39 25t17 48zM341 142q0 19 -8 38q1 14 -27.5 36.5t-43.5 22.5h-80
v-191h74q33 0 59 30.5t26 63.5z" />
    <glyph glyph-name="C" unicode="C" horiz-adv-x="437" 
d="M478 363h-13q-6 38 -49 58q-35 16 -79 16q-83 1 -140 -58.5t-57 -143.5q0 -82 57.5 -141t140.5 -59q43 0 78 16q43 20 50 57l8 3l4 -85q-70 -38 -139 -38q-104 1 -177 72.5t-73 174.5q0 104 73 176.5t176 72.5q75 0 140 -39v-82z" />
    <glyph glyph-name="D" unicode="D" horiz-adv-x="492" 
d="M513 237q0 -90 -66 -163q-69 -74 -159 -74h-195l1 9q37 6 37 25v403q0 23 -37 26l-5 11h170q105 0 179.5 -67t74.5 -170zM462 234q0 57 -31.5 106t-83.5 68q-41 15 -53 15h-112v-375h106q70 0 123 59q51 56 51 127z" />
    <glyph glyph-name="E" unicode="E" horiz-adv-x="408" 
d="M413 -41q-13 11 -18 32q-7 9 -15 9h-174l-49 -44v274q-20 1 -26 -17q-9 -23 -12 -25l-1 131q5 -3 10.5 -20t19.5 -22l12 3v191h221q9 0 18 17q5 12 11 25v-131l-9 3q0 9 -6 31q-8 8 -15 8h-169v-147h167q9 0 18 16q5 13 11 25l-1 -131q-4 3 -11 24q-7 18 -18 18h-166
v-181h169q9 0 18 16l12 25z" />
    <glyph glyph-name="F" unicode="F" horiz-adv-x="388" 
d="M410 382l-9 3q0 9 -6 31q-8 8 -15 8h-169v-147h167q9 0 18 16q5 13 11 25l-1 -131q-4 3 -11 24q-7 18 -18 18h-167v-225l-53 -48v274q-22 -1 -28 -18q-8 -23 -10 -24l-1 131q5 -3 10.5 -20t19.5 -22l12 3v191h221q9 0 18 17q5 12 11 25v-131z" />
    <glyph glyph-name="G" unicode="G" horiz-adv-x="469" 
d="M487 33q-79 -46 -149 -46q-103 0 -176 72.5t-73 175.5q0 104 73 176.5t176 72.5q75 0 139 -39l1 -7q0 -12 -5 -75q-27 73 -136 74q-82 1 -139.5 -59t-57.5 -143q0 -82 57.5 -141t140.5 -59q58 0 98 31v141h-62q-11 0 -20 -16q-7 -12 -13 -25v88h146v-221z" />
    <glyph glyph-name="H" unicode="H" horiz-adv-x="474" 
d="M474 1h-130v8q38 3 38 25v188h-201l1 -188q0 -12 17 -19q21 -11 24 -14h-130v8q38 3 38 25l-1 406q0 16 -18.5 22t-18.5 12h129q-2 -2 -21.5 -11.5t-19.5 -21.5v-172h201l1 171q0 13 -15 20q-21 10 -24 14l130 -1q-2 -2 -21.5 -11t-19.5 -21v-408q0 -12 17 -19
q21 -9 24 -13z" />
    <glyph glyph-name="I" unicode="I" horiz-adv-x="231" 
d="M232 473l-25 -12q-16 -8 -16 -20v-408q0 -12 17 -19q21 -9 24 -13h-133l25 13q16 9 16 20v406q0 14 -16 21q-23 10 -25 12h133z" />
    <glyph glyph-name="J" unicode="J" horiz-adv-x="212" 
d="M235 474q-2 -6 -21.5 -12.5t-19.5 -20.5v-563q0 -5 -22 -40l-28 -42v644q0 13 -16 20q-22 10 -26 14h133z" />
    <glyph glyph-name="K" unicode="K" horiz-adv-x="435" 
d="M484 0h-91l-209 210l-1 -186q6 -7 20 -11t20 -12h-134l3 8q9 2 27 7q12 12 12 18l-1 407q0 9 -15 18l-23 12h127v-9h-2l-27 -6q-9 -9 -9 -15v-123l5 -3l136 130q0 8 -13 24l4 15l85 -95l-11 -3q-10 8 -23 15h-8l-155 -138l122 -126q76 -78 125 -118q6 -5 29 -8
q3 -3 7 -11z" />
    <glyph glyph-name="L" unicode="L" horiz-adv-x="370" 
d="M394 -41q-6 4 -13 25q-6 16 -17 16h-187l-46 -44v485q0 13 -16 20q-22 9 -26 13h134q-2 -6 -22 -12.5t-20 -20.5v-393l181 -1q13 0 20 17q10 23 12 25v-130z" />
    <glyph glyph-name="M" unicode="M" horiz-adv-x="640" 
d="M390 474h249l-3 -12l-1 1q-36 0 -36 -22v-408q0 -12 17 -19q21 -9 24 -13l-133 -1q2 6 23 12q18 6 18 22v388h-160l1 -388q0 -12 17 -19q21 -11 24 -14h-130v8q38 3 38 25v388h-157v-389q0 -12 17 -19q22 -10 25 -13h-134q3 4 25 13q17 7 17 22l-1 414q-5 7 -20 11.5
t-21 12.5l249 -1v9q0 16 -18.5 22.5t-19.5 10.5h130q-1 -7 -19.5 -13.5t-20.5 -15.5q-1 -10 0 -12z" />
    <glyph glyph-name="N" unicode="N" horiz-adv-x="543" 
d="M544 474q-1 -1 -25 -13q-16 -8 -16 -20v-408q0 -13 17.5 -20t19.5 -9q-56 -2 -87 -1q-17 0 -39 4q25 5 31.5 14.5t6.5 33.5l-271 289v-311q0 -11 17 -19q22 -9 25 -13h-130v8q38 3 38 25l-1 406q0 16 -18.5 22t-18.5 12l129 -1q-7 -9 -19 -11t-15 -7q-7 -8 -7 -36
l272 -289l-1 311q0 14 -19 20.5t-19 12.5h130z" />
    <glyph glyph-name="O" unicode="O" horiz-adv-x="569" 
d="M589 236q0 -103 -72.5 -176t-176.5 -73q-103 0 -175.5 72.5t-72.5 175.5t73 176.5t175 73.5q104 0 176.5 -72.5t72.5 -176.5zM538 258q-6 59 -60 118q-57 61 -114 57v-175h174zM318 258v175h-10q-56 0 -111 -59.5t-53 -115.5h174zM538 213h-175v-175h11q46 0 99 52t60 99
q1 8 5 24zM318 38v175h-174v-16q0 -50 62.5 -105.5t111.5 -53.5z" />
    <glyph glyph-name="P" unicode="P" horiz-adv-x="363" 
d="M392 333q0 -51 -37 -98q-40 -50 -89 -50h-85l1 -152q0 -11 16 -19q24 -12 25 -13h-133l25 12q16 9 16 21v407q0 21 -35 21l-7 12q57 1 170 -2q53 -3 93 -45t40 -94zM341 331q0 34 -24.5 64.5t-57.5 30.5h-77v-193h71q36 0 62 31t26 67z" />
    <glyph glyph-name="Q" unicode="Q" horiz-adv-x="566" 
d="M586 237q0 -96 -62.5 -166t-157.5 -83v-57q0 -10 15 -19q11 -7 23 -13h-130l27 13t14 19l-3 60q-98 13 -160 80.5t-62 165.5q0 104 73.5 175.5t177.5 71.5q101 0 173 -73t72 -174zM535 236q0 81 -56.5 140.5t-138.5 59.5q-84 0 -142 -57.5t-58 -141.5q0 -62 34 -112
t91 -73q29 -12 50 -10v129q0 12 -16 19q-23 10 -25 12q7 1 16 3q-2 0 115 -3q-12 -6 -36 -21q-1 -5 -1 -49q0 -15 1 -45v-45h14q28 0 76.5 39t55.5 66l13 45.5t7 43.5z" />
    <glyph glyph-name="R" unicode="R" horiz-adv-x="512" 
d="M525 0h-91l-210 209h-43l1 -176q0 -13 19.5 -19t21.5 -13h-134l4 8q1 0 26 6q12 12 12 19v407q0 10 -16 17q-19 7 -23 16q12 0 40 1h46q91 0 138 -21q66 -30 66 -108q0 -41 -25 -75.5t-64 -52.5q111 -117 111 -118q91 -90 118 -88zM331 344q0 17 -7.5 31l-15.5 28
q-34 23 -49 23h-77v-168h70q31 0 55 27t24 59z" />
    <glyph glyph-name="S" unicode="S" horiz-adv-x="356" 
d="M379 126q0 -60 -48 -99q-44 -37 -105 -37q-50 0 -87.5 29.5t-52.5 78.5l33 14.5l33 14.5l3 -9l-15 -18q6 -29 32 -45.5t57 -16.5q41 0 70 23.5t29 62.5q0 43 -58 78l-107 60q-58 41 -58 96q0 51 38.5 85.5t90.5 34.5q83 0 130 -82q-33 -25 -56 -49l-3 9q0 5 3.5 13
t3.5 12q0 22 -28 37q-24 12 -49 12q-33 0 -56 -19t-23 -52q0 -40 58 -71l107 -57q58 -42 58 -105z" />
    <glyph glyph-name="T" unicode="T" horiz-adv-x="485" 
d="M534 382q-4 4 -11 4v2q0 10 -6.5 23t-15.5 13h-180l1 -391q0 -12 17 -19q21 -9 24 -13h-133l25 13q16 9 16 20v390l-183 -1q-12 0 -19 -18q-8 -21 -11 -23v130q2 -2 13 -24q8 -17 20 -17h410q9 0 16 14t6 24l11 3v-130z" />
    <glyph glyph-name="U" unicode="U" horiz-adv-x="609" 
d="M637 474q-4 -7 -22.5 -13t-18.5 -20l-1 -233q0 -89 -82 -157q-77 -64 -165 -64q-90 0 -167 65q-82 68 -82 157v232q0 11 -15 19q-20 11 -23 14l123 -1q1 -4 -16.5 -12t-17.5 -20l-1 -230q0 -68 66 -123q63 -53 133 -53t133.5 54t63.5 123v228q0 13 -16 21q-24 11 -26 13
h134z" />
    <glyph glyph-name="V" unicode="V" horiz-adv-x="550" 
d="M611 473q-15 -9 -43 -31q-52 -92 -124 -232l-121 -233l-167 319q-24 52 -77 147q-6 9 -19 15.5t-25 11.5l130 4l-28 -21v-12l186 -358l187 358v12l-29 20h130z" />
    <glyph glyph-name="W" unicode="W" horiz-adv-x="731" 
d="M812 474q-6 -7 -21 -14.5t-20 -13.5q-8 -9 -118 -220l-129 -248l-105 197l-105 -201q-117 233 -249 472q-10 8 -39 24l130 4l-29 -21v-12l187 -358l75 142l-1 9q-46 95 -112 213q-5 5 -22 13.5t-18 13.5h130l-29 -21v-12l82 -158l81 155v15l-29 21h130l1 -9
q-15 -1 -35 -13l-121 -221l78 -148l186 358v12l-28 21h130z" />
    <glyph glyph-name="X" unicode="X" horiz-adv-x="576" 
d="M608 63l-94 -95l-4 7q1 2 6.5 14t5.5 17q0 12 -82 94q-58 59 -100 97l-58 -56l-82 -82q-41 -44 -41 -52q0 4 13 -31l-4 -8l-95 95l12 4q18 -12 28 -16l190 186l-191 183q-10 -4 -28 -16l-11 5l94 94l5 -7q-1 -3 -7 -14.5t-6 -16.5q0 -12 82 -94q58 -59 100 -97l58 56
l82 82q41 44 41 52q0 5 -5.5 16.5t-6.5 14.5l4 8l94 -94l-11 -4q-18 12 -28 15l-190 -186l190 -184q13 5 28 17z" />
    <glyph glyph-name="Y" unicode="Y" horiz-adv-x="522" 
d="M580 409l-9 -5q-7 9 -25 17q-24 -11 -102 -90l-103 -107l-1 -191q0 -10 15 -18q22 -12 24 -14l-130 1q2 6 23 12q18 4 18 20v190l-203 196q-7 -2 -28 -16l-8 9l91 90l4 -11q-11 -11 -13 -25q0 -14 81 -95q68 -68 102 -97l58 56q53 51 82 82q41 44 41 54t-13 25l4 11z" />
    <glyph glyph-name="Z" unicode="Z" horiz-adv-x="443" 
d="M458 -41q-3 2 -13 24q-8 17 -20 17h-329q265 424 265 423q0 1 -4 1l-231 -1q-13 0 -21 -16q-10 -23 -12 -25v131q2 -2 13 -25q8 -17 20 -17h326l-264 -424l237 1q14 0 21 17q10 22 12 24v-130z" />
    <glyph glyph-name="bracketleft" unicode="[" horiz-adv-x="272" 
d="M302 -86h-145v636h145v-26h-100v-585h100v-25z" />
    <glyph glyph-name="backslash" unicode="\" horiz-adv-x="384" 
d="M426 -25h-110l-322 522h-27q-14 -12 -12 -38l-15 -3v60h110l319 -523h31q13 12 11 38l15 4v-60z" />
    <glyph glyph-name="bracketright" unicode="]" horiz-adv-x="247" 
d="M232 -86h-146v27h101v585h-101v24h146v-636z" />
    <glyph glyph-name="asciicircum" unicode="^" horiz-adv-x="249" 
d="M277 390q-7 -3 -15 -3q-17 0 -37 15q-28 19 -35 22q-40 -35 -49 -35h-33l71 76h27z" />
    <glyph glyph-name="underscore" unicode="_" horiz-adv-x="318" 
d="M353 -139h-349l2 3q-1 0 13 7q-3 2 -19 15h353q-7 -11 -15 -15q6 -3 15 -10z" />
    <glyph glyph-name="grave" unicode="`" horiz-adv-x="169" 
d="M188 390q-8 -2 -13 -2q-22 0 -63 31q-56 42 -61 45h66z" />
    <glyph glyph-name="a" unicode="a" horiz-adv-x="424" 
d="M433 8l-89 -43q0 5 16 24v16q0 4 -20 40h-220q-8 -13 -14 -24.5t-6 -32.5q16 -13 17 -22l-93 43q5 5 30 2q16 16 89 173l88 193l115 -251q15 -37 49 -106q5 -3 12 -10q10 2 15 2q7 0 11 -4zM325 84l-95 214l-95 -214h190z" />
    <glyph glyph-name="b" unicode="b" horiz-adv-x="292" 
d="M293 107q0 -48 -34 -77t-83 -29l-107 1q1 1 18 9q11 5 11 14v306q0 12 -14 16t-15 9h115q34 0 61 -25t27 -59q0 -39 -33 -70q54 -32 54 -95zM234 269q0 18 -12.5 36t-29.5 18h-56v-109h56q17 0 30 20q12 17 12 35zM255 106q0 16 -6 29q1 10 -20.5 27t-32.5 17h-60v-143
h55q25 0 44.5 22.5t19.5 47.5z" />
    <glyph glyph-name="c" unicode="c" horiz-adv-x="336" 
d="M359 273l-10 -1q-5 28 -37 43q-26 12 -59 12q-62 0 -105 -44t-43 -107q0 -62 43 -106t104 -44q33 0 59 12q33 15 39 43l6 2l2 -64q-52 -28 -103 -28q-78 1 -133 54.5t-55 131.5q0 77 54.5 131.5t131.5 54.5q56 0 106 -29v-61z" />
    <glyph glyph-name="d" unicode="d" horiz-adv-x="367" 
d="M385 178q0 -68 -50.5 -123t-118.5 -55h-146v6q28 3 28 19v303q0 19 -28 19l-3 9h128q79 0 134.5 -50t55.5 -128zM345 176q0 51 -36 95q-39 46 -89 46h-84v-281h79q52 0 91 43.5t39 96.5z" />
    <glyph glyph-name="e" unicode="e" horiz-adv-x="316" 
d="M310 -31q-11 9 -14 24q-7 7 -11 7h-131l-36 -33l-1 205q-15 1 -19 -12q-6 -17 -9 -19v97q4 -2 8 -14.5t14 -15.5l9 2v143h165q8 0 22 32v-98l-5 3q0 6 -6 22q-6 6 -11 6h-127v-110l125 -1q8 0 22 32v-98q-4 2 -9 18q-5 13 -13 13h-125v-136l127 -1q7 0 13 13q5 9 9 19z
" />
    <glyph glyph-name="f" unicode="f" horiz-adv-x="304" 
d="M307 287l-5 3q0 6 -6 22q-6 6 -11 6h-127v-110l125 -1q8 0 22 32v-98q-4 2 -9 18q-5 13 -13 13h-126v-169l-39 -36v206q-16 -1 -21 -14q-6 -16 -8 -18v97q4 -2 8 -14.5t14 -15.5l9 2v143h165q8 0 22 32v-98z" />
    <glyph glyph-name="g" unicode="g" horiz-adv-x="368" 
d="M365 24q-59 -33 -112 -33q-77 1 -131.5 55t-54.5 131t54.5 131.5t131.5 54.5q58 0 105 -29v-5l-3 -57q-21 55 -102 55q-61 0 -104.5 -44.5t-43.5 -106.5t43 -106t105 -44q45 0 74 23v106l-46 1q-9 0 -14.5 -11l-10.5 -21v67h109v-167z" />
    <glyph glyph-name="h" unicode="h" horiz-adv-x="363" 
d="M356 1h-98l1 6q28 3 28 18v141h-151v-141q0 -9 14.5 -15t16.5 -9h-97v6q28 3 28 18v306q0 12 -14 16t-14 8h97q-2 -2 -16.5 -8.5t-14.5 -15.5v-130h151v130q0 9 -11 14q-15 7 -18 10h98q-2 -2 -16.5 -8.5t-14.5 -15.5v-306q0 -9 14.5 -15t16.5 -9z" />
    <glyph glyph-name="i" unicode="i" horiz-adv-x="181" 
d="M174 355q-9 -4 -20 -9.5t-11 -14.5l1 -306q0 -9 12 -14q16 -7 18 -10h-100q9 5 20 10.5t11 13.5v305q0 11 -12 16q-18 8 -19 9h100z" />
    <glyph glyph-name="j" unicode="j" horiz-adv-x="183" 
d="M177 355q-2 -5 -16.5 -9t-14.5 -15v-423q0 -4 -38 -61v484q0 10 -12 15q-16 6 -19 9h100z" />
    <glyph glyph-name="k" unicode="k" horiz-adv-x="327" 
d="M363 0h-68l-157 158v-139q4 -5 14.5 -8.5t14.5 -9.5h-100l3 6q3 1 19 4q9 9 9 14v306q0 7 -10 12t-19 10h95v-6l-2 -1q-7 1 -16.5 -3.5t-9.5 -11.5v-93l3 -2l103 97q0 7 -10 19l3 11l63 -71l-8 -3q-7 7 -17 12h-6l-116 -104l90 -94q55 -56 95 -89q4 -3 22 -6z" />
    <glyph glyph-name="l" unicode="l" horiz-adv-x="284" 
d="M296 -31q-5 4 -11 19q-4 12 -12 12h-140l-35 -33l1 364q0 10 -13 15q-16 6 -19 9l100 1q-2 -5 -16.5 -9.5t-14.5 -15.5v-295h134q10 0 16 13q8 17 9 18z" />
    <glyph glyph-name="m" unicode="m" horiz-adv-x="486" 
d="M292 356h187l-2 -9h-1q-27 0 -27 -16v-306q0 -9 14.5 -15t16.5 -9h-99q2 5 16 8.5t14 15.5v292h-120l1 -292q0 -9 12 -14q16 -7 18 -10h-97v6q28 3 28 18v292h-117v-292q0 -9 14.5 -15t16.5 -9h-100q2 3 18 9q13 5 13 16l-1 311q-3 5 -14 8.5t-16 9.5h187v6
q0 11 -14 16.5t-15 8.5h97q-1 -5 -14.5 -10t-15.5 -12q-1 -7 0 -8z" />
    <glyph glyph-name="n" unicode="n" horiz-adv-x="415" 
d="M408 355q-9 -4 -20 -9.5t-11 -14.5l1 -307q0 -9 11 -13q15 -6 17 -8l-43 -1q-45 -1 -53 3q19 4 24 11t5 25l-203 217l-1 -232q0 -9 13 -15q17 -8 19 -10h-97v6q28 3 28 18v306q0 12 -14 16t-14 8h97q-2 -3 -21 -10q-10 -3 -10 -31l203 -216v233q0 11 -14 15.5t-14 8.5h97
z" />
    <glyph glyph-name="o" unicode="o" horiz-adv-x="439" 
d="M442 177q0 -78 -54.5 -132t-132.5 -54q-77 0 -131.5 54.5t-54.5 131.5t54.5 131.5t131.5 54.5q78 0 132.5 -54.5t54.5 -131.5zM403 193q-4 44 -46 89t-84 42v-131h130zM239 193v131h-8q-41 0 -83 -45t-40 -86h131zM403 159h-130v-131h7q34 0 74.5 39.5t44.5 73.5
q1 9 4 18zM238 28v131h-130l-1 -13q-3 -36 45.5 -78.5t85.5 -39.5z" />
    <glyph glyph-name="p" unicode="p" horiz-adv-x="272" 
d="M294 250q0 -38 -28 -73q-30 -38 -67 -38h-63v-115q0 -8 13 -14q17 -8 18 -9h-100q9 5 20 10.5t11 13.5l-1 305q0 16 -25 16l-5 9q43 1 128 -1q39 -2 69 -33.5t30 -70.5zM256 248q0 26 -18.5 49t-43.5 23h-58v-145h54q27 0 46.5 23t19.5 50z" />
    <glyph glyph-name="q" unicode="q" horiz-adv-x="421" 
d="M439 178q0 -72 -46.5 -124.5t-117.5 -62.5v-42q0 -8 10 -14l18 -11h-97q9 4 19.5 9.5t10.5 14.5v22q-1 15 -1 23q-74 10 -121 61t-47 124q0 78 55 131.5t133 53.5q76 0 130 -54.5t54 -130.5zM401 177q0 61 -42.5 106t-103.5 45q-62 0 -106 -43.5t-44 -106.5
q0 -54 38 -100q41 -50 93 -47v97q0 6 -7 13q-8 3 -24 10q10 1 26 2q36 0 72 -3q-9 -4 -26 -14q-1 -8 -1 -37l1 -68h10q21 0 57 30t41 50l10.5 34t5.5 32z" />
    <glyph glyph-name="r" unicode="r" horiz-adv-x="354" 
d="M394 0h-68l-158 157h-32v-132q0 -10 14.5 -14.5t16.5 -9.5h-100l3 6q3 2 9.5 3.5t9.5 2.5q9 7 9 12v306q0 8 -13 13t-15 12h89q57 -2 88 -20q39 -24 39 -76q0 -66 -66 -96q145 -157 171 -155zM248 258q0 13 -17 44q-25 18 -37 18h-58v-126h54q23 0 40.5 20t17.5 44z" />
    <glyph glyph-name="s" unicode="s" horiz-adv-x="282" 
d="M285 94q0 -44 -34.5 -72.5t-80.5 -28.5q-79 0 -105 80q8 4 24.5 11.5t24.5 11.5l3 -8l-12 -12q11 -47 67 -47q30 0 52 17t22 46q0 32 -43 59l-81 46q-43 30 -43 72q0 38 29 63.5t68 25.5q62 0 97 -61q-22 -16 -42 -36q0 1 -0.5 3t-1.5 3q0 4 2.5 9.5t2.5 8.5q0 17 -21 28
q-17 10 -36 10q-25 0 -42 -14t-17 -39q0 -30 44 -54l80 -43q43 -31 43 -79z" />
    <glyph glyph-name="t" unicode="t" horiz-adv-x="387" 
d="M401 287l-9 2v2q0 27 -16 27h-135v-293q0 -9 14.5 -15t16.5 -9h-100q9 5 20 10.5t11 13.5v293h-137q-9 0 -14 -13q-6 -16 -8 -18l-1 97q1 -1 10 -18q6 -13 15 -13h307q7 0 12.5 10.5t4.5 18.5l9 2v-97z" />
    <glyph glyph-name="u" unicode="u" horiz-adv-x="450" 
d="M477 355q-3 -5 -16.5 -9.5t-13.5 -14.5v-175q0 -66 -62 -117q-58 -49 -125 -49t-125 49q-61 51 -61 118v173q0 8 -11 14q-15 8 -17 11l92 1q0 -4 -13 -10t-13 -15v-173q0 -51 48 -91t100 -40q53 0 100.5 40t47.5 92l1 172q0 10 -12 15q-19 9 -20 9h100z" />
    <glyph glyph-name="v" unicode="v" horiz-adv-x="449" 
d="M459 355q-11 -7 -34 -23l-183 -350l-131 252q-16 35 -52 99q-2 3 -33 20l98 2l-21 -15v-9l139 -269l140 269v9l-21 15h98z" />
    <glyph glyph-name="w" unicode="w" horiz-adv-x="599" 
d="M609 355q-11 -6 -31 -21q-11 -11 -185 -351l-79 148l-79 -150l-185 354q-5 4 -31 18l98 2l-22 -15v-9l140 -269l56 107v7l-41 84q-29 59 -43 75q-14 7 -30 20h98l-22 -15v-9l61 -118l61 116v11l-21 15h97l-1 -6q-12 -1 -26 -10q-50 -88 -90 -166l59 -111l140 269v9
l-22 15h98z" />
    <glyph glyph-name="x" unicode="x" horiz-adv-x="437" 
d="M456 47l-70 -71l-4 6q10 20 10 24q0 8 -61 70q-48 47 -76 72q-135 -135 -135 -143q4 -9 9 -23l-3 -6l-71 71l8 3q11 -8 22 -12l142 140l-142 138q-8 -3 -22 -13l-8 3l71 71l3 -6q-10 -20 -10 -22q0 -8 61 -70q49 -49 76 -73q135 135 135 143q-3 9 -9 22l3 6l71 -71l-8 -3
q-14 10 -21 12l-143 -139l142 -138q11 4 22 12z" />
    <glyph glyph-name="y" unicode="y" horiz-adv-x="408" 
d="M435 307l-5 -4q-7 9 -21 12q-17 -7 -76 -67l-77 -80l-1 -143q0 -8 11 -14q17 -9 18 -10l-98 -1q2 5 16.5 9t14.5 16v143l-151 147q-8 -2 -22 -12l-6 7l69 67l3 -8q-10 -10 -10 -19q0 -10 61 -72q45 -45 76 -73l75 74q60 60 60 71q0 8 -9 19l3 8z" />
    <glyph glyph-name="z" unicode="z" horiz-adv-x="340" 
d="M343 -31q-2 2 -9 18q-6 13 -15 13l-247 1q199 318 199 316q-1 1 -3 1h-173q-10 0 -16 -12q-8 -18 -9 -19v97q2 -1 10 -18q6 -13 15 -13h244l-198 -317h178q10 0 15 13q8 17 9 18v-98z" />
    <glyph glyph-name="braceleft" unicode="{" horiz-adv-x="289" 
d="M321 -86h-146v230l-89 93l89 87v226h146v-26h-102v-208l-82 -82l84 -82v-213h100v-25z" />
    <glyph glyph-name="bar" unicode="|" horiz-adv-x="164" 
d="M153 30q-2 -9 -9 -13q-10 -25 -10 -56q0 -32 9.5 -37t9.5 -19h-57v12q19 11 19 37q0 19 -9.5 49t-9.5 28v403q0 4 5 10.5t6 9.5q8 25 8 49q0 45 -19 45v12h57v-12q-19 -11 -19 -39q0 -37 7 -55q1 -3 6.5 -9t5.5 -10v-405z" />
    <glyph glyph-name="braceright" unicode="}" horiz-adv-x="293" 
d="M322 234l-90 -90v-230h-146v27h102v211l83 82l-84 82v210h-101v24h146v-226z" />
    <glyph glyph-name="asciitilde" unicode="~" horiz-adv-x="506" 
d="M528 466q0 -55 -51.5 -98t-107.5 -43q-50 0 -85 24q-5 3 -49 45q-26 24 -53 24q-32 0 -58 -25.5t-26 -57.5h-75v20q0 55 52 100q50 42 106 42q46 0 83 -25q4 -3 52 -46q28 -25 53 -25q31 0 57.5 27t26.5 59h75v-21z" />
    <glyph glyph-name="Adieresis" unicode="&#xc4;" 
d="M577 11l-119 -57q0 9 22 31v22q0 4 -27 53h-293l-21 -35q-6 -13 -6 -40q22 -19 22 -31l-123 58q9 9 38 2q33 33 237 490q33 -76 147 -321q23 -54 73 -156q1 -2 16 -13q12 2 19 2q8 0 15 -5zM433 112l-126 285l-127 -285h253zM404 588l-36 -37l-37 37l37 36zM287 588
l-37 -37l-37 37l37 36z" />
    <glyph glyph-name="Aring" unicode="&#xc5;" 
d="M577 11l-119 -57q0 9 22 31v22q0 4 -27 53h-293l-21 -35q-6 -13 -6 -40q22 -19 22 -31l-123 58q9 9 38 2q33 33 237 490q33 -76 147 -321q23 -54 73 -156q1 -2 16 -13q12 2 19 2q8 0 15 -5zM433 112l-126 285l-127 -285h253zM354 602q0 -25 -18.5 -44.5t-43.5 -19.5
t-43.5 19.5t-18.5 45.5q0 25 18.5 44t42.5 19q25 0 44 -19.5t19 -44.5zM327 602q0 13 -10 24t-23 11t-23.5 -11t-10.5 -24t10 -24.5t23 -11.5t23.5 11t10.5 25z" />
    <glyph glyph-name="Ccedilla" unicode="&#xc7;" horiz-adv-x="437" 
d="M478 363h-13q-6 38 -49 58q-35 16 -79 16q-83 1 -140 -58.5t-57 -143.5q0 -82 57.5 -141t140.5 -59q43 0 78 16q43 20 50 57l8 3l4 -85q-70 -38 -139 -38q-104 1 -177 72.5t-73 174.5q0 104 73 176.5t176 72.5q75 0 140 -39v-82zM355 -1l-52 -37q-36 -25 -55 -25
q-11 0 -18 4l66 72q20 -5 59 -14z" />
    <glyph glyph-name="Eacute" unicode="&#xc9;" horiz-adv-x="408" 
d="M413 -41q-13 11 -18 32q-7 9 -15 9h-174l-49 -44v274q-20 1 -26 -17q-9 -23 -12 -25l-1 131q5 -3 10.5 -20t19.5 -22l12 3v191h221q9 0 18 17q5 12 11 25v-131l-9 3q0 9 -6 31q-8 8 -15 8h-169v-147h167q9 0 18 16q5 13 11 25l-1 -131q-4 3 -11 24q-7 18 -18 18h-166
v-181h169q9 0 18 16l12 25zM392 630l-103 -75h-34l71 75h66z" />
    <glyph glyph-name="Ntilde" unicode="&#xd1;" horiz-adv-x="522" 
d="M544 474q-1 -1 -25 -13q-16 -8 -16 -20v-408q0 -13 17.5 -20t19.5 -9q-56 -2 -87 -1q-17 0 -39 4q25 5 31.5 14.5t6.5 33.5l-271 289v-311q0 -11 17 -19q22 -9 25 -13h-130v8q38 3 38 25l-1 406q0 16 -18.5 22t-18.5 12l129 -1q-7 -9 -19 -11t-15 -7q-7 -8 -7 -36
l272 -289l-1 311q0 14 -19 20.5t-19 12.5h130zM418 593q0 -14 -21 -30t-36 -16q-23 -1 -62 36h-12q-14 0 -25 -32h-28v13q0 16 20 31.5t37 15.5q21 0 35 -11.5l28 -23.5h12q6 0 15.5 12.5t8.5 18.5h28v-14z" />
    <glyph glyph-name="Odieresis" unicode="&#xd6;" horiz-adv-x="588" 
d="M589 236q0 -103 -72.5 -176t-176.5 -73q-103 0 -175.5 72.5t-72.5 175.5t73 176.5t175 73.5q104 0 176.5 -72.5t72.5 -176.5zM538 258q-6 59 -60 118q-57 61 -114 57v-175h174zM318 258v175h-10q-56 0 -111 -59.5t-53 -115.5h174zM538 213h-175v-175h11q46 0 99 52t60 99
q1 8 5 24zM318 38v175h-174v-16q0 -50 62.5 -105.5t111.5 -53.5zM429 584l-36 -37l-37 37l37 36zM312 584l-37 -37l-37 37l37 36z" />
    <glyph glyph-name="Udieresis" unicode="&#xdc;" horiz-adv-x="611" 
d="M637 474q-4 -7 -22.5 -13t-18.5 -20l-1 -233q0 -89 -82 -157q-77 -64 -165 -64q-90 0 -167 65q-82 68 -82 157v232q0 11 -15 19q-20 11 -23 14l123 -1q1 -4 -16.5 -12t-17.5 -20l-1 -230q0 -68 66 -123q63 -53 133 -53t133.5 54t63.5 123v228q0 13 -16 21q-24 11 -26 13
h134zM441 588l-36 -37l-37 37l37 36zM324 588l-37 -37l-37 37l37 36z" />
    <glyph glyph-name="aacute" unicode="&#xe1;" horiz-adv-x="390" 
d="M433 8l-89 -43q0 5 16 24v16q0 4 -20 40h-220q-8 -13 -14 -24.5t-6 -32.5q16 -13 17 -22l-93 43q5 5 30 2q16 16 89 173l88 193l115 -251q15 -37 49 -106q5 -3 12 -10q10 2 15 2q7 0 11 -4zM325 84l-95 214l-95 -214h190zM350 474l-103 -75h-34l71 75h66z" />
    <glyph glyph-name="agrave" unicode="&#xe0;" horiz-adv-x="390" 
d="M433 8l-89 -43q0 5 16 24v16q0 4 -20 40h-220q-8 -13 -14 -24.5t-6 -32.5q16 -13 17 -22l-93 43q5 5 30 2q16 16 89 173l88 193l115 -251q15 -37 49 -106q5 -3 12 -10q10 2 15 2q7 0 11 -4zM325 84l-95 214l-95 -214h190zM301 390q-8 -2 -13 -2q-22 0 -63 31
q-56 42 -61 45h66z" />
    <glyph glyph-name="acircumflex" unicode="&#xe2;" horiz-adv-x="390" 
d="M433 8l-89 -43q0 5 16 24v16q0 4 -20 40h-220q-8 -13 -14 -24.5t-6 -32.5q16 -13 17 -22l-93 43q5 5 30 2q16 16 89 173l88 193l115 -251q15 -37 49 -106q5 -3 12 -10q10 2 15 2q7 0 11 -4zM325 84l-95 214l-95 -214h190zM322 384q-2 0 -6 -0.5t-6 -1.5q-25 0 -69 35
q-6 -2 -28.5 -18t-26.5 -16h-33l71 76h27z" />
    <glyph glyph-name="adieresis" unicode="&#xe4;" horiz-adv-x="390" 
d="M433 8l-89 -43q0 5 16 24v16q0 4 -20 40h-220q-8 -13 -14 -24.5t-6 -32.5q16 -13 17 -22l-93 43q5 5 30 2q16 16 89 173l88 193l115 -251q15 -37 49 -106q5 -3 12 -10q10 2 15 2q7 0 11 -4zM325 84l-95 214l-95 -214h190zM315 427l-36 -37l-37 37l37 36zM198 427l-37 -37
l-37 37l37 36z" />
    <glyph glyph-name="atilde" unicode="&#xe3;" horiz-adv-x="390" 
d="M433 8l-89 -43q0 5 16 24v16q0 4 -20 40h-220q-8 -13 -14 -24.5t-6 -32.5q16 -13 17 -22l-93 43q5 5 30 2q16 16 89 173l88 193l115 -251q15 -37 49 -106q5 -3 12 -10q10 2 15 2q7 0 11 -4zM325 84l-95 214l-95 -214h190zM332 431q0 -14 -21 -30t-36 -16q-23 -1 -62 36
h-12q-14 0 -25 -32h-28v13q0 16 20 31.5t37 15.5q21 0 35 -11.5l28 -23.5h12q6 0 15.5 12.5t8.5 18.5h28v-14z" />
    <glyph glyph-name="aring" unicode="&#xe5;" horiz-adv-x="390" 
d="M433 8l-89 -43q0 5 16 24v16q0 4 -20 40h-220q-8 -13 -14 -24.5t-6 -32.5q16 -13 17 -22l-93 43q5 5 30 2q16 16 89 173l88 193l115 -251q15 -37 49 -106q5 -3 12 -10q10 2 15 2q7 0 11 -4zM325 84l-95 214l-95 -214h190zM295 441q0 -25 -18.5 -44.5t-43.5 -19.5
t-43.5 19.5t-18.5 45.5q0 25 18.5 44t42.5 19q25 0 44 -19.5t19 -44.5zM268 441q0 13 -10 24t-23 11t-23.5 -11t-10.5 -24t10 -24.5t23 -11.5t23.5 11t10.5 25z" />
    <glyph glyph-name="ccedilla" unicode="&#xe7;" horiz-adv-x="366" 
d="M359 273l-10 -1q-5 28 -37 43q-26 12 -59 12q-62 0 -105 -44t-43 -107q0 -62 43 -106t104 -44q33 0 59 12q33 15 39 43l6 2l2 -64q-52 -28 -103 -28q-78 1 -133 54.5t-55 131.5q0 77 54.5 131.5t131.5 54.5q56 0 106 -29v-61zM246 12l-52 -37q-36 -25 -55 -25
q-11 0 -18 4l66 72q20 -5 59 -14z" />
    <glyph glyph-name="eacute" unicode="&#xe9;" horiz-adv-x="287" 
d="M310 -31q-11 9 -14 24q-7 7 -11 7h-131l-36 -33l-1 205q-15 1 -19 -12q-6 -17 -9 -19v97q4 -2 8 -14.5t14 -15.5l9 2v143h165q8 0 22 32v-98l-5 3q0 6 -6 22q-6 6 -11 6h-127v-110l125 -1q8 0 22 32v-98q-4 2 -9 18q-5 13 -13 13h-125v-136l127 -1q7 0 13 13q5 9 9 19z
M273 461l-103 -75h-34l71 75h66z" />
    <glyph glyph-name="egrave" unicode="&#xe8;" horiz-adv-x="286" 
d="M310 -31q-11 9 -14 24q-7 7 -11 7h-131l-36 -33l-1 205q-15 1 -19 -12q-6 -17 -9 -19v97q4 -2 8 -14.5t14 -15.5l9 2v143h165q8 0 22 32v-98l-5 3q0 6 -6 22q-6 6 -11 6h-127v-110l125 -1q8 0 22 32v-98q-4 2 -9 18q-5 13 -13 13h-125v-136l127 -1q7 0 13 13q5 9 9 19z
M255 390q-8 -2 -13 -2q-22 0 -63 31q-56 42 -61 45h66z" />
    <glyph glyph-name="ecircumflex" unicode="&#xea;" horiz-adv-x="288" 
d="M310 -31q-11 9 -14 24q-7 7 -11 7h-131l-36 -33l-1 205q-15 1 -19 -12q-6 -17 -9 -19v97q4 -2 8 -14.5t14 -15.5l9 2v143h165q8 0 22 32v-98l-5 3q0 6 -6 22q-6 6 -11 6h-127v-110l125 -1q8 0 22 32v-98q-4 2 -9 18q-5 13 -13 13h-125v-136l127 -1q7 0 13 13q5 9 9 19z
M303 390q-2 0 -6 -0.5t-6 -1.5q-25 0 -69 35q-6 -2 -28.5 -18t-26.5 -16h-33l71 76h27z" />
    <glyph glyph-name="edieresis" unicode="&#xeb;" horiz-adv-x="289" 
d="M310 -31q-11 9 -14 24q-7 7 -11 7h-131l-36 -33l-1 205q-15 1 -19 -12q-6 -17 -9 -19v97q4 -2 8 -14.5t14 -15.5l9 2v143h165q8 0 22 32v-98l-5 3q0 6 -6 22q-6 6 -11 6h-127v-110l125 -1q8 0 22 32v-98q-4 2 -9 18q-5 13 -13 13h-125v-136l127 -1q7 0 13 13q5 9 9 19z
M303 424l-36 -37l-37 37l37 36zM186 424l-37 -37l-37 37l37 36z" />
    <glyph glyph-name="iacute" unicode="&#xed;" horiz-adv-x="199" 
d="M157 320q-2 -2 -17 -9q-11 -5 -11 -13v-276q0 -7 11 -12q15 -7 17 -9h-90q9 4 18.5 9t9.5 13l-1 274q0 9 -11 14q-14 7 -16 9h90zM222 470l-103 -75h-34l71 75h66z" />
    <glyph glyph-name="igrave" unicode="&#xec;" horiz-adv-x="141" 
d="M157 320q-2 -2 -17 -9q-11 -5 -11 -13v-276q0 -7 11 -12q15 -7 17 -9h-90q9 4 18.5 9t9.5 13l-1 274q0 9 -11 14q-14 7 -16 9h90zM204 381q-8 -2 -13 -2q-22 0 -63 31q-56 42 -61 45h66z" />
    <glyph glyph-name="icircumflex" unicode="&#xee;" horiz-adv-x="180" 
d="M157 320q-2 -2 -17 -9q-11 -5 -11 -13v-276q0 -7 11 -12q15 -7 17 -9h-90q9 4 18.5 9t9.5 13l-1 274q0 9 -11 14q-14 7 -16 9h90zM236 361q-2 0 -6 -0.5t-6 -1.5q-25 0 -69 35q-6 -2 -28.5 -18t-26.5 -16h-33l71 76h27z" />
    <glyph glyph-name="idieresis" unicode="&#xef;" horiz-adv-x="188" 
d="M157 320q-2 -2 -17 -9q-11 -5 -11 -13v-276q0 -7 11 -12q15 -7 17 -9h-90q9 4 18.5 9t9.5 13l-1 274q0 9 -11 14q-14 7 -16 9h90zM258 427l-36 -37l-37 37l37 36zM141 427l-37 -37l-37 37l37 36z" />
    <glyph glyph-name="ntilde" unicode="&#xf1;" horiz-adv-x="395" 
d="M408 355q-9 -4 -20 -9.5t-11 -14.5l1 -307q0 -9 11 -13q15 -6 17 -8l-43 -1q-45 -1 -53 3q19 4 24 11t5 25l-203 217l-1 -232q0 -9 13 -15q17 -8 19 -10h-97v6q28 3 28 18v306q0 12 -14 16t-14 8h97q-2 -3 -21 -10q-10 -3 -10 -31l203 -216v233q0 11 -14 15.5t-14 8.5h97
zM312 431q0 -14 -21 -30t-36 -16q-23 -1 -62 36h-12q-14 0 -25 -32h-28v13q0 16 20 31.5t37 15.5q21 0 35 -11.5l28 -23.5h12q6 0 15.5 12.5t8.5 18.5h28v-14z" />
    <glyph glyph-name="oacute" unicode="&#xf3;" horiz-adv-x="403" 
d="M442 177q0 -78 -54.5 -132t-132.5 -54q-77 0 -131.5 54.5t-54.5 131.5t54.5 131.5t131.5 54.5q78 0 132.5 -54.5t54.5 -131.5zM403 193q-4 44 -46 89t-84 42v-131h130zM239 193v131h-8q-41 0 -83 -45t-40 -86h131zM403 159h-130v-131h7q34 0 74.5 39.5t44.5 73.5
q1 9 4 18zM238 28v131h-130l-1 -13q-3 -36 45.5 -78.5t85.5 -39.5zM319 470l-103 -75h-34l71 75h66z" />
    <glyph glyph-name="ograve" unicode="&#xf2;" horiz-adv-x="404" 
d="M442 177q0 -78 -54.5 -132t-132.5 -54q-77 0 -131.5 54.5t-54.5 131.5t54.5 131.5t131.5 54.5q78 0 132.5 -54.5t54.5 -131.5zM403 193q-4 44 -46 89t-84 42v-131h130zM239 193v131h-8q-41 0 -83 -45t-40 -86h131zM403 159h-130v-131h7q34 0 74.5 39.5t44.5 73.5
q1 9 4 18zM238 28v131h-130l-1 -13q-3 -36 45.5 -78.5t85.5 -39.5zM290 390q-8 -2 -13 -2q-22 0 -63 31q-56 42 -61 45h66z" />
    <glyph glyph-name="ocircumflex" unicode="&#xf4;" horiz-adv-x="401" 
d="M442 177q0 -78 -54.5 -132t-132.5 -54q-77 0 -131.5 54.5t-54.5 131.5t54.5 131.5t131.5 54.5q78 0 132.5 -54.5t54.5 -131.5zM403 193q-4 44 -46 89t-84 42v-131h130zM239 193v131h-8q-41 0 -83 -45t-40 -86h131zM403 159h-130v-131h7q34 0 74.5 39.5t44.5 73.5
q1 9 4 18zM238 28v131h-130l-1 -13q-3 -36 45.5 -78.5t85.5 -39.5zM338 390q-2 0 -6 -0.5t-6 -1.5q-25 0 -69 35q-6 -2 -28.5 -18t-26.5 -16h-33l71 76h27z" />
    <glyph glyph-name="odieresis" unicode="&#xf6;" horiz-adv-x="401" 
d="M442 177q0 -78 -54.5 -132t-132.5 -54q-77 0 -131.5 54.5t-54.5 131.5t54.5 131.5t131.5 54.5q78 0 132.5 -54.5t54.5 -131.5zM403 193q-4 44 -46 89t-84 42v-131h130zM239 193v131h-8q-41 0 -83 -45t-40 -86h131zM403 159h-130v-131h7q34 0 74.5 39.5t44.5 73.5
q1 9 4 18zM238 28v131h-130l-1 -13q-3 -36 45.5 -78.5t85.5 -39.5zM338 426l-36 -37l-37 37l37 36zM221 426l-37 -37l-37 37l37 36z" />
    <glyph glyph-name="otilde" unicode="&#xf5;" horiz-adv-x="398" 
d="M442 177q0 -78 -54.5 -132t-132.5 -54q-77 0 -131.5 54.5t-54.5 131.5t54.5 131.5t131.5 54.5q78 0 132.5 -54.5t54.5 -131.5zM403 193q-4 44 -46 89t-84 42v-131h130zM239 193v131h-8q-41 0 -83 -45t-40 -86h131zM403 159h-130v-131h7q34 0 74.5 39.5t44.5 73.5
q1 9 4 18zM238 28v131h-130l-1 -13q-3 -36 45.5 -78.5t85.5 -39.5zM353 434q0 -14 -21 -30t-36 -16q-23 -1 -62 36h-12q-14 0 -25 -32h-28v13q0 16 20 31.5t37 15.5q21 0 35 -11.5l28 -23.5h12q6 0 15.5 12.5t8.5 18.5h28v-14z" />
    <glyph glyph-name="uacute" unicode="&#xfa;" horiz-adv-x="430" 
d="M477 355q-3 -5 -16.5 -9.5t-13.5 -14.5v-175q0 -66 -62 -117q-58 -49 -125 -49t-125 49q-61 51 -61 118v173q0 8 -11 14q-15 8 -17 11l92 1q0 -4 -13 -10t-13 -15v-173q0 -51 48 -91t100 -40q53 0 100.5 40t47.5 92l1 172q0 10 -12 15q-19 9 -20 9h100zM362 467l-103 -75
h-34l71 75h66z" />
    <glyph glyph-name="ugrave" unicode="&#xf9;" horiz-adv-x="430" 
d="M477 355q-3 -5 -16.5 -9.5t-13.5 -14.5v-175q0 -66 -62 -117q-58 -49 -125 -49t-125 49q-61 51 -61 118v173q0 8 -11 14q-15 8 -17 11l92 1q0 -4 -13 -10t-13 -15v-173q0 -51 48 -91t100 -40q53 0 100.5 40t47.5 92l1 172q0 10 -12 15q-19 9 -20 9h100zM290 390
q-8 -2 -13 -2q-22 0 -63 31q-56 42 -61 45h66z" />
    <glyph glyph-name="ucircumflex" unicode="&#xfb;" horiz-adv-x="430" 
d="M477 355q-3 -5 -16.5 -9.5t-13.5 -14.5v-175q0 -66 -62 -117q-58 -49 -125 -49t-125 49q-61 51 -61 118v173q0 8 -11 14q-15 8 -17 11l92 1q0 -4 -13 -10t-13 -15v-173q0 -51 48 -91t100 -40q53 0 100.5 40t47.5 92l1 172q0 10 -12 15q-19 9 -20 9h100zM348 390
q-2 0 -6 -0.5t-6 -1.5q-25 0 -69 35q-6 -2 -28.5 -18t-26.5 -16h-33l71 76h27z" />
    <glyph glyph-name="udieresis" unicode="&#xfc;" horiz-adv-x="430" 
d="M477 355q-3 -5 -16.5 -9.5t-13.5 -14.5v-175q0 -66 -62 -117q-58 -49 -125 -49t-125 49q-61 51 -61 118v173q0 8 -11 14q-15 8 -17 11l92 1q0 -4 -13 -10t-13 -15v-173q0 -51 48 -91t100 -40q53 0 100.5 40t47.5 92l1 172q0 10 -12 15q-19 9 -20 9h100zM357 422l-36 -37
l-37 37l37 36zM240 422l-37 -37l-37 37l37 36z" />
    <glyph glyph-name="dagger" unicode="&#x2020;" horiz-adv-x="344" 
d="M353 268q-6 4 -16 24q-8 17 -17 17h-78v-336q26 -24 35 -38l-59 -59q-22 20 -61 65q7 3 34 33v335h-77q-12 0 -19 -17q-8 -22 -11 -24v129q4 -3 12 -24q6 -17 17 -17h78v85q0 13 -16 20q-21 8 -25 13l134 -1q-1 0 -25 -12q-17 -8 -17 -20v-85h74q11 0 19 13.5t6 24.5h9z
" />
    <glyph glyph-name="degree" unicode="&#xb0;" horiz-adv-x="209" 
d="M232 387q0 -39 -29 -68t-68 -29t-68 29t-29 68q0 41 28 69t69 28t69 -28t28 -69zM204 387q0 28 -20 48t-49 20t-48.5 -20t-19.5 -49q0 -27 20.5 -47t48.5 -20q27 0 47.5 20.5t20.5 47.5z" />
    <glyph glyph-name="cent" unicode="&#xa2;" horiz-adv-x="352" 
d="M357 84q-44 -30 -99 -29q-16 0 -37 2q-4 -14 -11.5 -42.5t-12.5 -42.5h-37l28 96q-44 22 -71.5 63t-27.5 90q0 75 55.5 125t130.5 42q8 28 25 83h38q-16 -47 -26 -89q11 -5 44 -26v-75h-12v4q0 13 -16.5 29t-28.5 17l-64 -224q17 -5 31 -5q68 0 75 57h15q-5 -29 1 -75z
M263 339l-17 1q-39 2 -71 -40q-30 -38 -30 -79q0 -67 54 -101z" />
    <glyph glyph-name="sterling" unicode="&#xa3;" horiz-adv-x="401" 
d="M410 -41q-11 11 -13 26l-11 10q-33 5 -121 5q-82 0 -122 -5l-21 -33q-1 31 0 72q0 24 2 55q5 -13 18 -38q6 -2 13 -2q3 0 4 1l-3 180l-5 -1q-14 1 -20 -16q-4 -12 -9 -25l-4 130q7 -3 11 -19t19 -22l11 3l1 81q0 8 9 31t13 30q17 28 52 45t69 17q51 0 104 -39v-82h-11
q-5 31 -33.5 52.5t-60.5 21.5q-30 0 -61 -26t-31 -56v-78h84q12 0 19.5 19.5t10.5 21.5v-130q-5 3 -12 24q-6 17 -18 17h-83v-181h166q13 0 21 16q10 23 12 25v-130z" />
    <glyph glyph-name="section" unicode="&#xa7;" horiz-adv-x="287" 
d="M290 234q0 -48 -45 -81q29 -23 29 -69q0 -42 -33.5 -69.5t-76.5 -27.5q-77 0 -100 78q20 11 25 14q14 6 28 7q-2 -11 -9 -15v-15q25 -31 57 -31q27 0 47 16.5t20 43.5q0 32 -40 54l-76 38q-40 27 -40 72q0 51 54 78q-38 26 -38 69q0 38 27.5 63t65.5 25q28 0 55 -17
t41 -42q-15 -13 -47 -36l-5 7l10 17q1 15 -19 25q-16 8 -33 8q-22 0 -37.5 -13t-15.5 -35q0 -28 39 -48.5l77 -39.5q40 -29 40 -76zM248 232q0 23 -26.5 43.5t-50.5 20.5q-53 0 -53 -46q0 8 4 -20q50 -52 90 -51q36 17 36 53z" />
    <glyph glyph-name="bullet" unicode="&#x2022;" horiz-adv-x="273" 
d="M268 236q0 -37 -28 -65t-64 -28q-37 0 -65.5 28t-28.5 64q0 37 28 65.5t65 28.5t65 -28t28 -65z" />
    <glyph glyph-name="paragraph" unicode="&#xb6;" horiz-adv-x="336" 
d="M360 -98h-81v520h-71v-520l-84 -1l28 10.5t14 26.5l-3 282q-51 3 -86 38.5t-35 85.5q0 45 34 85.5t78 41.5l206 3l-5 -10q-37 -8 -37 -26l1 -507q0 -13 16 -19z" />
    <glyph glyph-name="germandbls" unicode="&#xdf;" horiz-adv-x="436" 
d="M459 99q0 -47 -40.5 -79.5t-88.5 -32.5q-41 0 -77 27.5t-36 66.5q15 10 49 24l8 -5l-13 -16v-10q0 -15 27 -28q24 -11 42 -11q29 0 53.5 19.5t24.5 47.5q0 29 -36 52l-68 41q-37 27 -37 68q0 33 21 54l41 29t21 35q0 28 -25 45q-21 14 -51 14q-31 0 -61.5 -27t-30.5 -58
v-325q0 -6 11 -17l23 -4l7 -11h-134q3 6 24 13q18 7 18 20v327q0 49 48 89q45 37 95 37q49 0 86 -26q41 -30 41 -77q0 -36 -21 -57q-2 -2 -40 -26q-21 -14 -21 -34q0 -25 37 -46q61 -35 67 -40q36 -30 36 -79z" />
    <glyph glyph-name="registered" unicode="&#xae;" horiz-adv-x="566" 
d="M586 236q0 -104 -72.5 -176.5t-175.5 -72.5t-176 72.5t-73 175.5q0 104 73 176.5t176 72.5q104 0 176 -72t72 -176zM553 235q0 89 -63.5 151t-152.5 62q-88 0 -152.5 -63t-64.5 -150q0 -86 65.5 -150t151.5 -64q89 0 152.5 62.5t63.5 151.5zM480 105q-9 1 -25 0
q-19 -1 -25 -1l-121 118l-24 -3l1 -100q6 -8 22 -14h-73l13 5q9 9 9 18l-3 232q-7 3 -19 11h102q24 0 43.5 -23.5t19.5 -48.5q0 -27 -15 -44q-2 -2 -36 -31l64 -65q46 -47 67 -54zM373 299q0 17 -12.5 32.5t-28.5 15.5h-45v-98l46 -1q15 0 27.5 17.5t12.5 33.5z" />
    <glyph glyph-name="copyright" unicode="&#xa9;" 
d="M586 237q0 -104 -72 -177t-176 -73q-103 0 -176 73.5t-73 176.5q0 102 73 174.5t175 72.5q103 0 176 -72t73 -175zM554 236q0 89 -63.5 151t-153.5 62q-89 0 -152.5 -62t-63.5 -151q0 -87 65 -150.5t152 -63.5q89 0 152.5 62.5t63.5 151.5zM427 356l-3 -48q-13 42 -75 42
q-46 0 -79.5 -33.5t-33.5 -79.5t33.5 -79.5t79.5 -33.5q23 0 46 11q27 12 31 31v-47q-46 -24 -77 -24q-57 -1 -99.5 42t-42.5 101q0 59 41 100t100 41q31 0 79 -23z" />
    <glyph glyph-name="trademark" unicode="&#x2122;" horiz-adv-x="559" 
d="M264 522v65l-6 -1q1 -4 -2.5 -11.5t-8.5 -7.5l-205 -1q-6 0 -10.5 10t-5.5 11v-65q1 1 5 11t10 10h91v-195q0 -6 -8 -10l-12 -7l67 1q-2 2 -11.5 6t-9.5 9v196h89q11 0 11 -18v-2q4 0 6 -1zM437 564q0 3 -1 6q1 5 10.5 8.5t10.5 6.5h-66q1 -2 10.5 -5.5t9.5 -11.5v-4
l-124 1q8 -2 19 -13q1 -69 1 -206q0 -8 -10 -12t-11 -6h67q-1 2 -11 6t-10 10v195h79l-1 -196q0 -11 -18 -11v-4h65q-1 2 -11 6t-10 10v195h80v-195q0 -8 -10 -10.5t-11 -5.5h67q-1 2 -11 6t-10 10v204q0 13 18 10h1l1 6h-124z" />
    <glyph glyph-name="acute" unicode="&#xb4;" horiz-adv-x="249" 
d="M277 464l-103 -75h-34l71 75h66z" />
    <glyph glyph-name="dieresis" unicode="&#xa8;" horiz-adv-x="192" 
d="M213 591l-36 -37l-37 37l37 36zM96 591l-37 -37l-37 37l37 36z" />
    <glyph glyph-name="AE" unicode="&#xc6;" horiz-adv-x="546" 
d="M547 -41q-6 4 -15 25q-8 16 -18 16h-177l-48 -44v105h-130q-14 -26 -29 -64q0 -13 11.5 -22.5t14.5 -18.5l-60.5 29.5l-60.5 29.5h39q10 8 217 456h220q12 0 20 17l13 25l-1 -130l-12 25q-9 16 -20 16h-169v-147h166q13 0 20 16q11 24 12 25v-130l-12 25q-9 16 -20 16
h-166v-181h169q13 0 21 18q12 23 15 26v-133zM289 105v257l-114 -257h114z" />
    <glyph glyph-name="Oslash" unicode="&#xd8;" horiz-adv-x="585" 
d="M586 236q0 -104 -72 -176.5t-176 -72.5q-73 0 -161 54q-24 -26 -48 -44q-20 20 -31 30q18 16 48 51q-57 57 -57 157q0 103 72.5 176t175.5 73q93 0 158 -57l55 54q16 -15 31 -34q-32 -30 -52 -54q57 -65 57 -157zM535 235q0 61 -43 124l-275 -278l4 -8q61 -39 116 -39
q83 0 140.5 59t57.5 142zM459 389q-42 46 -121 47q-83 1 -140.5 -58.5t-57.5 -142.5q0 -65 43 -125z" />
    <glyph glyph-name="plusminus" unicode="&#xb1;" horiz-adv-x="394" 
d="M381 201q-5 3 -12 24q-6 17 -17 17h-66l1 -65q0 -10 13.5 -18t23.5 -6q0 -8 4 -12h-133l3 12q12 -1 25 6t13 18v65h-66q-13 0 -20 -17q-10 -22 -12 -24v131q2 -2 13 -25q8 -17 20 -17h61q2 30 2 46q0 41 -25 41q-5 0 -11 -1l-3 12l132 -1q-4 -5 -2 -10q-15 0 -27 -4
q-12 -12 -12 -18v-65h65q12 0 19.5 19.5t10.5 21.5v-130zM384 0q-4 3 -10 23q-4 17 -16 17h-206q-4 -14 -17 -40v22q0 106 4 109q4 -12 10 -36q8 -7 166 -7q38 0 49 5q7 3 9 15.5t11 21.5v-130z" />
    <glyph glyph-name="yen" unicode="&#xa5;" horiz-adv-x="522" 
d="M579 408l-10 1q-5 0 -10 4q-8 6 -10 7h-9l-199 -193l2 -20h102v-39h-103v-41h103v-39h-104v-55q0 -10 15 -18q21 -11 23 -14h-130q2 6 23 12q18 5 18 21v56h-105v39h104v40h-104v39h105v19l-200 193l-8 1q-7 0 -20 -13l-11 4l91 91l4 -11q-12 -12 -12 -25q0 -15 80 -93
l101 -96q182 162 182 189q0 10 -13 25l4 11z" />
    <glyph glyph-name="mu" unicode="&#xb5;" horiz-adv-x="606" 
d="M637 474l-25 -13q-16 -9 -16 -20v-233q0 -18 -22 -74q-26 -65 -90.5 -105.5t-136.5 -40.5q-117 1 -196 91h-2v-161q0 -11 17 -19q22 -10 25 -13h-130v9q38 3 38 24v522q0 11 -15 18q-19 9 -23 15h124q1 -7 -17 -13.5t-18 -19.5v-230q0 -67 66 -123q63 -53 131 -53
q61 0 111 34.5t72 91.5q15 40 15 51l-1 229q0 13 -16 20q-22 10 -25 13h134z" />
    <glyph glyph-name="mu" unicode="&#x3bc;" horiz-adv-x="606" 
d="M637 474l-25 -13q-16 -9 -16 -20v-233q0 -18 -22 -74q-26 -65 -90.5 -105.5t-136.5 -40.5q-117 1 -196 91h-2v-161q0 -11 17 -19q22 -10 25 -13h-130v9q38 3 38 24v522q0 11 -15 18q-19 9 -23 15h124q1 -7 -17 -13.5t-18 -19.5v-230q0 -67 66 -123q63 -53 131 -53
q61 0 111 34.5t72 91.5q15 40 15 51l-1 229q0 13 -16 20q-22 10 -25 13h134z" />
    <glyph glyph-name="ordfeminine" unicode="&#xaa;" horiz-adv-x="268" 
d="M280 257l-60 -30q0 1 13 20q-5 14 -16 33h-145q-12 -24 -12 -39q9 -5 9 -14q-6 4 -56 30q1 1 16 1l116 239l115 -240h20zM235 216v-19q0 -27 -4 -48q-7 8 -7 10q-5 10 -56 10q-65 0 -85 -3q-5 -6 -18 -16l-1 66q12 -9 12 -11q9 -11 50 -11h35l47 1q8 9 27 21zM207 306
l-62 137l-62 -137h124z" />
    <glyph glyph-name="ordmasculine" unicode="&#xba;" horiz-adv-x="243" 
d="M268 365q0 -50 -36.5 -88t-86.5 -38t-86.5 37.5t-36.5 87.5q0 53 35 89.5t88 36.5t88 -36.5t35 -88.5zM232 216q-3 -15 -3 -62h-2q-7 0 -10 5q-9 10 -59 10q-62 0 -82 -3q-5 -6 -18 -16v66q12 -9 12 -11q9 -11 49 -11h35h37q25 3 26 17q6 1 15 5zM244 376q-7 32 -32 59.5
t-56 29.5v-89h88zM244 353h-89v-85h14q22 0 47.5 31t27.5 54zM132 376v89q-31 -2 -56.5 -29.5t-31.5 -59.5h88zM132 268v85l-88 1q1 -23 27 -54.5t48 -31.5h13z" />
    <glyph glyph-name="ae" unicode="&#xe6;" horiz-adv-x="389" 
d="M384 65q-3 -2 -3 -93l-8 3v13q-12 12 -15 12h-120q-18 -15 -31 -32v74l-93 -1q-10 -13 -22 -43q8 -9 19 -30l-85 40q1 4 29 4l153 319h150q3 0 15 12q1 9 8 17v-92l-8 3v13q-12 12 -15 12h-118v-102h115q7 0 23 29v-93q-14 29 -20 29h-118v-124h118q3 0 15 12v12
q2 2 6 3.5t5 2.5zM205 77v175l-78 -175h78z" />
    <glyph glyph-name="oslash" unicode="&#xf8;" horiz-adv-x="396" 
d="M411 164q0 -74 -50.5 -124t-123.5 -49q-66 0 -114 41q-18 -17 -32 -35l-21 21q9 13 32 34q-38 53 -38 112q0 73 50 123.5t123 49.5q61 0 112 -41l37 38q15 -13 21 -24q-24 -24 -34 -38q38 -46 38 -108zM379 164q0 42 -30 84l-196 -189q26 -34 84 -34t100 40.5t42 98.5z
M325 272q-38 31 -87 31q-56 0 -99 -41.5t-44 -98.5q0 -42 31 -87z" />
    <glyph glyph-name="questiondown" unicode="&#xbf;" horiz-adv-x="404" 
d="M338 447q-24 -21 -43 -46q-32 32 -47 50l43 43zM419 119q0 -52 -50 -92t-102 -40q-63 0 -108 43.5t-45 106.5q0 62 49 114q16 17 100 82v20l30 29q5 -7 28 -30l-4 -32l-94 -81q-58 -54 -58 -101q0 -42 29 -72.5t71 -30.5q47 0 75 31.5t28 77.5q-6 9 -20 12.5t-18 11.5h89
v-49z" />
    <glyph glyph-name="exclamdown" unicode="&#xa1;" horiz-adv-x="212" 
d="M220 435q-33 -28 -59 -60q-25 32 -59 60l59 59zM204 17l-43 -42l-40 39l26 310l14 14l14 -14z" />
    <glyph glyph-name="logicalnot" unicode="&#xac;" horiz-adv-x="595" 
d="M608 144l-147 1q4 4 4 10q38 0 38 22v94h-376q-10 0 -19 -16q-5 -13 -11 -26l-1 147q4 -3 11.5 -22.5t18.5 -19.5h441v-158q0 -13 19.5 -19t21.5 -13z" />
    <glyph glyph-name="florin" unicode="&#x192;" horiz-adv-x="295" 
d="M327 386l-5 -2q-4 13 -9.5 26.5t-22.5 13.5q-42 0 -53 -42l-14 -74l-0.5 -1.5t-1.5 -2.5q0 -2 5 -2h63q-1 -6 -2.5 -18.5t-3.5 -18.5h-64q-28 -140 -51 -286q-14 -89 -82 -104q-12 0 -33 -3q-9 -2 -14 -18q-5 -19 -10 -23v131l9 -4v-6q0 -2 6 -23q15 -9 26 -8q29 0 37 30
q13 46 32 154q22 115 23 153l-3 7l-50 -1q4 22 3 35q19 3 57 3l31 119q19 44 106 53l21 39v-127z" />
    <glyph glyph-name="guillemotleft" unicode="&#xab;" horiz-adv-x="356" 
d="M379 167l-82 -84l-4 15q4 3 13 19l-1 8q0 4 -108 112l109 112v9q0 6 -13 19l4 15l82 -85l-11 -4q-12 12 -24 12t-44 -32l-42 -44q1 -10 38 -45t48 -35q9 0 27 13zM248 142l-52 -59l-8 10q9 7 16 24q1 13 -45 59l-60 59q17 20 52.5 58.5t52.5 58.5q-6 19 -16 29l8 11
q18 -19 52 -59l-95 -96z" />
    <glyph glyph-name="guillemotright" unicode="&#xbb;" horiz-adv-x="329" 
d="M357 240q-36 -38 -105 -117q6 -19 16 -29l-9 -11q-38 38 -55 59l95 95l-95 99l56 56l8 -11q-7 -6 -16 -22q1 -15 46 -60zM257 237q-37 -36 -108 -112v-10q0 -5 12 -17l-4 -15l-85 85q5 4 15 4q9 -6 16 -13h12l81 78l-81 78h-12q-1 0 -16 -12l-15 4l84 85q3 -2 6 -10
q0 -4 -6.5 -12.5t-6.5 -20.5z" />
    <glyph glyph-name="ellipsis" unicode="&#x2026;" horiz-adv-x="694" 
d="M707 37l-59 -59l-59 59l59 59zM446 37q-39 -39 -56 -59l-59 59l59 59q13 -16 56 -59zM187 36l-59 -59l-59 59l59 59z" />
    <glyph glyph-name="nonbreakingspace" unicode="&#xa0;" horiz-adv-x="0" 
 />
    <glyph glyph-name="Agrave" unicode="&#xc0;" 
d="M577 11l-119 -57q0 9 22 31v22q0 4 -27 53h-293l-21 -35q-6 -13 -6 -40q22 -19 22 -31l-123 58q9 9 38 2q33 33 237 490q33 -76 147 -321q23 -54 73 -156q1 -2 16 -13q12 2 19 2q8 0 15 -5zM433 112l-126 285l-127 -285h253zM345 549q-8 -2 -13 -2q-22 0 -63 31
q-56 42 -61 45h66z" />
    <glyph glyph-name="Atilde" unicode="&#xc3;" 
d="M577 11l-119 -57q0 9 22 31v22q0 4 -27 53h-293l-21 -35q-6 -13 -6 -40q22 -19 22 -31l-123 58q9 9 38 2q33 33 237 490q33 -76 147 -321q23 -54 73 -156q1 -2 16 -13q12 2 19 2q8 0 15 -5zM433 112l-126 285l-127 -285h253zM391 593q0 -14 -21 -30t-36 -16
q-23 -1 -62 36h-12q-14 0 -25 -32h-28v13q0 16 20 31.5t37 15.5q21 0 35 -11.5l28 -23.5h12q6 0 15.5 12.5t8.5 18.5h28v-14z" />
    <glyph glyph-name="Otilde" unicode="&#xd5;" horiz-adv-x="588" 
d="M589 236q0 -103 -72.5 -176t-176.5 -73q-103 0 -175.5 72.5t-72.5 175.5t73 176.5t175 73.5q104 0 176.5 -72.5t72.5 -176.5zM538 258q-6 59 -60 118q-57 61 -114 57v-175h174zM318 258v175h-10q-56 0 -111 -59.5t-53 -115.5h174zM538 213h-175v-175h11q46 0 99 52t60 99
q1 8 5 24zM318 38v175h-174v-16q0 -50 62.5 -105.5t111.5 -53.5zM417 596q0 -14 -21 -30t-36 -16q-23 -1 -62 36h-12q-14 0 -25 -32h-28v13q0 16 20 31.5t37 15.5q21 0 35 -11.5l28 -23.5h12q6 0 15.5 12.5t8.5 18.5h28v-14z" />
    <glyph glyph-name="OE" unicode="&#x152;" horiz-adv-x="790" 
d="M792 -41q-13 11 -18 32q-5 9 -15 9h-174l-49 -45q3 111 3 110q0 11 -2 15q-73 -93 -197 -93q-104 0 -176 73t-72 177q0 103 73 175t176 72q117 0 195 -93q5 42 -1 80h224q10 0 19 17q5 12 11 25v-131l-9 3q0 10 -6 30q-7 9 -15 9h-169v-147h166q9 0 18 16l12 25v-134
q-2 2 -12 25q-8 20 -21 20h-163v-181h169q10 0 18 16l12 25zM538 257v12q0 54 -60 110.5t-114 52.5v-175h174zM538 212h-175v-175l17 1q51 3 106.5 63.5t51.5 110.5zM318 257v175h-17q-51 0 -106.5 -61.5t-50.5 -113.5h174zM318 37v175h-174l-1 -18q-3 -49 60 -105t115 -52z
" />
    <glyph glyph-name="oe" unicode="&#x153;" horiz-adv-x="561" 
d="M553 -28q-11 5 -11 20q-6 8 -12 8h-120l-37 -32l3 78q0 9 -2 11q-55 -67 -135 -66q-73 0 -124.5 52t-51.5 124q0 71 52 122.5t124 51.5q36 0 74 -18t61 -46h2v56h159l18 27l1 -93q-12 7 -12 21q-6 8 -12 8h-118v-102h115q4 0 23 29v-93q-4 2 -10 17q-5 12 -13 12h-115
l-1 -122q26 -1 78 -1q43 0 45 1q9 14 19 27v-92zM376 181l-1 11q0 28 -38 68.5t-65 40.5h-17v-120h121zM376 151h-121v-123l14 -1q17 -1 55 29t38 47q14 42 14 48zM222 181v120h-16q-31 0 -70 -44.5t-37 -75.5h123zM222 28v123h-123q2 -34 28.5 -69t57.5 -46q23 -8 21 -8h16
z" />
    <glyph glyph-name="endash" unicode="&#x2013;" horiz-adv-x="322" 
d="M311 182q-4 2 -12 23q-6 18 -18 18h-237q-12 0 -19 -17q-8 -22 -11 -24l-1 130q4 -3 12 -24q7 -17 18 -17h239q10 0 17 17q8 21 12 24v-130z" />
    <glyph glyph-name="emdash" unicode="&#x2014;" horiz-adv-x="643" 
d="M633 182q-5 3 -12 24q-6 17 -18 17h-559q-12 0 -19 -17q-8 -22 -11 -24l-1 130q4 -3 12 -24q7 -17 18 -17l560 -1q11 0 18 17q8 22 12 25v-130z" />
    <glyph glyph-name="quotedblleft" unicode="&#x201c;" horiz-adv-x="343" 
d="M360 362l-24 -24l-100 100l58 59q36 -34 56 -59l-35 -35q23 -24 45 -41zM185 358l-21 -20l-103 100l58 59l59 -59l-35 -35q23 -21 42 -45z" />
    <glyph glyph-name="quotedblright" unicode="&#x201d;" horiz-adv-x="326" 
d="M360 438l-104 -100q-8 8 -20 24l41 41l-35 35l59 59zM185 438l-101 -100l-24 24q10 6 45 41l-35 35l58 59q35 -33 57 -59z" />
    <glyph glyph-name="quoteleft" unicode="&#x2018;" horiz-adv-x="179" 
d="M191 358l-21 -20l-100 103l56 56l59 -59l-36 -35q23 -21 42 -45z" />
    <glyph glyph-name="quoteright" unicode="&#x2019;" horiz-adv-x="172" 
d="M191 438l-100 -100q-15 13 -21 24l41 41l-35 35l59 59q36 -34 56 -59z" />
    <glyph glyph-name="divide" unicode="&#xf7;" horiz-adv-x="302" 
d="M223 336l-47 -43q-16 15 -45 46l46 46q32 -32 46 -49zM324 185q-5 3 -12 24q-6 17 -18 17h-234q-12 0 -19 -17q-8 -22 -11 -24l-1 130q4 -3 12 -24q6 -17 18 -17h235q12 0 19.5 19.5t10.5 21.5v-130zM223 158l-46 -47q-32 32 -46 50l46 46q32 -32 46 -49z" />
    <glyph glyph-name="ydieresis" unicode="&#xff;" horiz-adv-x="399" 
d="M435 307l-5 -4q-7 9 -21 12q-17 -7 -76 -67l-77 -80l-1 -143q0 -8 11 -14q17 -9 18 -10l-98 -1q2 5 16.5 9t14.5 16v143l-151 147q-8 -2 -22 -12l-6 7l69 67l3 -8q-10 -10 -10 -19q0 -10 61 -72q45 -45 76 -73l75 74q60 60 60 71q0 8 -9 19l3 8zM322 433l-36 -37l-37 37
l37 36zM205 433l-37 -37l-37 37l37 36z" />
    <glyph glyph-name="Ydieresis" unicode="&#x178;" horiz-adv-x="522" 
d="M580 409l-9 -5q-7 9 -25 17q-24 -11 -102 -90l-103 -107l-1 -191q0 -10 15 -18q22 -12 24 -14l-130 1q2 6 23 12q18 4 18 20v190l-203 196q-7 -2 -28 -16l-8 9l91 90l4 -11q-11 -11 -13 -25q0 -14 81 -95q68 -68 102 -97l58 56q53 51 82 82q41 44 41 54t-13 25l4 11z
M411 584l-36 -37l-37 37l37 36zM294 584l-37 -37l-37 37l37 36z" />
    <glyph glyph-name="currency" unicode="&#xa4;" horiz-adv-x="484" 
d="M510 425l-9 -5q-7 11 -14 13h-19l-42 -37q42 -64 43 -123t-43 -122l41 -36h15q5 0 11.5 5.5t8.5 6.5l7 -4l-74 -78q-3 2 -3 7q0 11 10 27q-6 16 -39 49q-68 -42 -122 -42q-53 0 -124 41q-18 -17 -39 -43v-9q0 -5 5 -12l8 -10l-5 -8l-75 78l8 4q7 -10 26 -16q23 14 49 40
q-42 63 -42 124q0 60 42 121q-6 7 -20 19l-21 18h-15q-8 0 -19 -13l-8 5l78 78q0 -17 -12 -34q0 -6 18 -24l24 -25q56 42 120 41q57 -1 124 -41q17 16 40 44v9q0 3 -13 22l5 8zM430 274q0 49 -30 92q-23 -17 -32 -32l-24 24l28 34q-38 32 -92 32q-52 0 -92 -31
q12 -18 29 -32q-7 -8 -21 -27l-31 32q-34 -36 -35 -92q0 -29 7 -48q5 -14 24 -45q13 10 35 32q9 -13 21 -24q-3 -5 -28 -33q38 -32 92 -32q44 0 91 30q-13 18 -31 35l24 24l32 -32q33 33 33 93z" />
    <glyph glyph-name="guilsinglleft" unicode="&#x2039;" horiz-adv-x="255" 
d="M277 167l-82 -84l-4 15q4 3 13 19v8q0 4 -108 112l108 112v9q0 6 -13 19l4 15l82 -85l-11 -4q-12 12 -23 12q-12 0 -44 -32l-43 -44q1 -10 38 -45t48 -35q9 0 27 13z" />
    <glyph glyph-name="guilsinglright" unicode="&#x203a;" horiz-adv-x="284" 
d="M312 237q-37 -36 -108 -112v-10q0 -5 12 -17l-4 -15l-84 85q5 4 14 4q9 -6 16 -13h12l82 78l-82 78h-12q-1 0 -16 -12l-15 4l85 85q5 -5 5 -9q0 -3 -6.5 -12.5t-6.5 -21.5z" />
    <glyph glyph-name="daggerdbl" unicode="&#x2021;" horiz-adv-x="349" 
d="M352 53l-11 2q-3 37 -25 37h-74v-84q0 -11 17 -19q21 -10 24 -14h-133q13 7 37 24q4 1 4 9v85l-77 -1q-12 0 -19 -18q-8 -21 -11 -23v130q4 -3 12 -24q6 -17 17 -17h77v191h-76q-12 0 -19 -17q-8 -22 -11 -24v130q4 -3 12 -24q6 -17 17 -17h78v84q0 13 -16 20
q-21 8 -25 13l134 -1q-1 -1 -25 -12q-17 -8 -17 -19v-85h74q11 0 19 13.5t6 24.5h9l-1 -127q-2 2 -13 24q-8 17 -20 17h-73v-191h73q13 0 21 17q10 22 13 24q0 -122 2 -128z" />
    <glyph glyph-name="periodcentered" unicode="&#xb7;" horiz-adv-x="170" 
d="M188 237q-10 -5 -22 -20q1 -7 6 -23l-24 6q-15 -13 -19 -21q-2 4 -20 22q-6 -1 -19 -7q0 16 2 24q-13 15 -22 20q4 2 23 18q-3 5 -3 16v8q7 -1 20 -5q15 13 20 22l18 -24q8 2 24 7q-1 -8 -6 -23q13 -15 22 -20z" />
    <glyph glyph-name="periodcentered" unicode="&#x2219;" horiz-adv-x="170" 
d="M188 237q-10 -5 -22 -20q1 -7 6 -23l-24 6q-15 -13 -19 -21q-2 4 -20 22q-6 -1 -19 -7q0 16 2 24q-13 15 -22 20q4 2 23 18q-3 5 -3 16v8q7 -1 20 -5q15 13 20 22l18 -24q8 2 24 7q-1 -8 -6 -23q13 -15 22 -20z" />
    <glyph glyph-name="quotesinglbase" unicode="&#x201a;" horiz-adv-x="183" 
d="M188 37l-104 -104q-16 12 -20 27q15 11 40 38q-7 10 -34 39l59 59z" />
    <glyph glyph-name="quotedblbase" unicode="&#x201e;" horiz-adv-x="354" 
d="M360 37l-104 -104q-17 30 -17 28q14 12 38 40l-35 36l59 59zM185 37l-101 -103q-15 13 -23 27q13 7 44 41l-35 35l59 59z" />
    <glyph glyph-name="perthousand" unicode="&#x2030;" horiz-adv-x="806" 
d="M850 115q0 -46 -34 -80.5t-80 -34.5q-48 0 -80 33.5t-32 81.5q0 46 33 78.5t79 32.5q45 0 79.5 -33t34.5 -78zM580 114q0 -46 -34 -80.5t-81 -34.5q-49 0 -82 33t-33 81q0 47 33 79.5t80 32.5t82 -32.5t35 -78.5zM493 470l-284 -470h-43l287 470h40zM312 356
q0 -46 -35 -79t-81 -33q-47 0 -80 32.5t-33 78.5q0 47 33.5 81t80.5 34q46 0 80.5 -34t34.5 -80zM780 176q-28 14 -45 14q-30 0 -53 -23t-23 -53q0 -17 14 -45zM812 114q0 23 -11 41l-107 -107q23 -12 42 -10q31 0 53.5 22.5t22.5 53.5zM541 114q0 19 -10 41l-111 -108
q22 -10 43 -10q31 0 54.5 23t23.5 54zM506 175q-25 14 -43 14q-31 0 -54.5 -22.5t-22.5 -53.5q0 -13 13 -45zM275 355q0 21 -11 41l-107 -104q11 -14 39 -14q32 0 55.5 22.5t23.5 54.5zM240 416q-23 14 -42 14q-32 0 -55.5 -22t-23.5 -54q0 -16 14 -42z" />
    <glyph glyph-name="Acircumflex" unicode="&#xc2;" 
d="M577 11l-119 -57q0 9 22 31v22q0 4 -27 53h-293l-21 -35q-6 -13 -6 -40q22 -19 22 -31l-123 58q9 9 38 2q33 33 237 490q33 -76 147 -321q23 -54 73 -156q1 -2 16 -13q12 2 19 2q8 0 15 -5zM433 112l-126 285l-127 -285h253zM382 549q-2 0 -6 -0.5t-6 -1.5q-25 0 -69 35
q-6 -2 -28.5 -18t-26.5 -16h-33l71 76h27z" />
    <glyph glyph-name="Ecircumflex" unicode="&#xca;" horiz-adv-x="408" 
d="M413 -41q-13 11 -18 32q-7 9 -15 9h-174l-49 -44v274q-20 1 -26 -17q-9 -23 -12 -25l-1 131q5 -3 10.5 -20t19.5 -22l12 3v191h221q9 0 18 17q5 12 11 25v-131l-9 3q0 9 -6 31q-8 8 -15 8h-169v-147h167q9 0 18 16q5 13 11 25l-1 -131q-4 3 -11 24q-7 18 -18 18h-166
v-181h169q9 0 18 16l12 25zM357 546q-2 0 -6 -0.5t-6 -1.5q-25 0 -69 35q-6 -2 -28.5 -18t-26.5 -16h-33l71 76h27z" />
    <glyph glyph-name="Aacute" unicode="&#xc1;" 
d="M577 11l-119 -57q0 9 22 31v22q0 4 -27 53h-293l-21 -35q-6 -13 -6 -40q22 -19 22 -31l-123 58q9 9 38 2q33 33 237 490q33 -76 147 -321q23 -54 73 -156q1 -2 16 -13q12 2 19 2q8 0 15 -5zM433 112l-126 285l-127 -285h253zM405 623l-103 -75h-34l71 75h66z" />
    <glyph glyph-name="Edieresis" unicode="&#xcb;" horiz-adv-x="408" 
d="M413 -41q-13 11 -18 32q-7 9 -15 9h-174l-49 -44v274q-20 1 -26 -17q-9 -23 -12 -25l-1 131q5 -3 10.5 -20t19.5 -22l12 3v191h221q9 0 18 17q5 12 11 25v-131l-9 3q0 9 -6 31q-8 8 -15 8h-169v-147h167q9 0 18 16q5 13 11 25l-1 -131q-4 3 -11 24q-7 18 -18 18h-166
v-181h169q9 0 18 16l12 25zM381 592l-36 -37l-37 37l37 36zM264 592l-37 -37l-37 37l37 36z" />
    <glyph glyph-name="Egrave" unicode="&#xc8;" horiz-adv-x="408" 
d="M413 -41q-13 11 -18 32q-7 9 -15 9h-174l-49 -44v274q-20 1 -26 -17q-9 -23 -12 -25l-1 131q5 -3 10.5 -20t19.5 -22l12 3v191h221q9 0 18 17q5 12 11 25v-131l-9 3q0 9 -6 31q-8 8 -15 8h-169v-147h167q9 0 18 16q5 13 11 25l-1 -131q-4 3 -11 24q-7 18 -18 18h-166
v-181h169q9 0 18 16l12 25zM326 555q-8 -2 -13 -2q-22 0 -63 31q-56 42 -61 45h66z" />
    <glyph glyph-name="Iacute" unicode="&#xcd;" horiz-adv-x="233" 
d="M232 473l-25 -12q-16 -8 -16 -20v-408q0 -12 17 -19q21 -9 24 -13h-133l25 13q16 9 16 20v406q0 14 -16 21q-23 10 -25 12h133zM255 623l-103 -75h-34l71 75h66z" />
    <glyph glyph-name="Icircumflex" unicode="&#xce;" horiz-adv-x="241" 
d="M232 473l-25 -12q-16 -8 -16 -20v-408q0 -12 17 -19q21 -9 24 -13h-133l25 13q16 9 16 20v406q0 14 -16 21q-23 10 -25 12h133zM268 552q-2 0 -6 -0.5t-6 -1.5q-25 0 -69 35q-6 -2 -28.5 -18t-26.5 -16h-33l71 76h27z" />
    <glyph glyph-name="Idieresis" unicode="&#xcf;" horiz-adv-x="259" 
d="M232 473l-25 -12q-16 -8 -16 -20v-408q0 -12 17 -19q21 -9 24 -13h-133l25 13q16 9 16 20v406q0 14 -16 21q-23 10 -25 12h133zM290 588l-36 -37l-37 37l37 36zM173 588l-37 -37l-37 37l37 36z" />
    <glyph glyph-name="Igrave" unicode="&#xcc;" horiz-adv-x="233" 
d="M232 473l-25 -12q-16 -8 -16 -20v-408q0 -12 17 -19q21 -9 24 -13h-133l25 13q16 9 16 20v406q0 14 -16 21q-23 10 -25 12h133zM242 552q-8 -2 -13 -2q-22 0 -63 31q-56 42 -61 45h66z" />
    <glyph glyph-name="Oacute" unicode="&#xd3;" horiz-adv-x="588" 
d="M589 236q0 -103 -72.5 -176t-176.5 -73q-103 0 -175.5 72.5t-72.5 175.5t73 176.5t175 73.5q104 0 176.5 -72.5t72.5 -176.5zM538 258q-6 59 -60 118q-57 61 -114 57v-175h174zM318 258v175h-10q-56 0 -111 -59.5t-53 -115.5h174zM538 213h-175v-175h11q46 0 99 52t60 99
q1 8 5 24zM318 38v175h-174v-16q0 -50 62.5 -105.5t111.5 -53.5zM433 619l-103 -75h-34l71 75h66z" />
    <glyph glyph-name="Ocircumflex" unicode="&#xd4;" horiz-adv-x="588" 
d="M589 236q0 -103 -72.5 -176t-176.5 -73q-103 0 -175.5 72.5t-72.5 175.5t73 176.5t175 73.5q104 0 176.5 -72.5t72.5 -176.5zM538 258q-6 59 -60 118q-57 61 -114 57v-175h174zM318 258v175h-10q-56 0 -111 -59.5t-53 -115.5h174zM538 213h-175v-175h11q46 0 99 52t60 99
q1 8 5 24zM318 38v175h-174v-16q0 -50 62.5 -105.5t111.5 -53.5zM417 543q-2 0 -6 -0.5t-6 -1.5q-25 0 -69 35q-6 -2 -28.5 -18t-26.5 -16h-33l71 76h27z" />
    <glyph glyph-name="Ograve" unicode="&#xd2;" horiz-adv-x="588" 
d="M589 236q0 -103 -72.5 -176t-176.5 -73q-103 0 -175.5 72.5t-72.5 175.5t73 176.5t175 73.5q104 0 176.5 -72.5t72.5 -176.5zM538 258q-6 59 -60 118q-57 61 -114 57v-175h174zM318 258v175h-10q-56 0 -111 -59.5t-53 -115.5h174zM538 213h-175v-175h11q46 0 99 52t60 99
q1 8 5 24zM318 38v175h-174v-16q0 -50 62.5 -105.5t111.5 -53.5zM354 543q-8 -2 -13 -2q-22 0 -63 31q-56 42 -61 45h66z" />
    <glyph glyph-name="Uacute" unicode="&#xda;" horiz-adv-x="611" 
d="M637 474q-4 -7 -22.5 -13t-18.5 -20l-1 -233q0 -89 -82 -157q-77 -64 -165 -64q-90 0 -167 65q-82 68 -82 157v232q0 11 -15 19q-20 11 -23 14l123 -1q1 -4 -16.5 -12t-17.5 -20l-1 -230q0 -68 66 -123q63 -53 133 -53t133.5 54t63.5 123v228q0 13 -16 21q-24 11 -26 13
h134zM443 620l-103 -75h-34l71 75h66z" />
    <glyph glyph-name="Ucircumflex" unicode="&#xdb;" horiz-adv-x="611" 
d="M637 474q-4 -7 -22.5 -13t-18.5 -20l-1 -233q0 -89 -82 -157q-77 -64 -165 -64q-90 0 -167 65q-82 68 -82 157v232q0 11 -15 19q-20 11 -23 14l123 -1q1 -4 -16.5 -12t-17.5 -20l-1 -230q0 -68 66 -123q63 -53 133 -53t133.5 54t63.5 123v228q0 13 -16 21q-24 11 -26 13
h134zM435 549q-2 0 -6 -0.5t-6 -1.5q-25 0 -69 35q-6 -2 -28.5 -18t-26.5 -16h-33l71 76h27z" />
    <glyph glyph-name="Ugrave" unicode="&#xd9;" horiz-adv-x="611" 
d="M637 474q-4 -7 -22.5 -13t-18.5 -20l-1 -233q0 -89 -82 -157q-77 -64 -165 -64q-90 0 -167 65q-82 68 -82 157v232q0 11 -15 19q-20 11 -23 14l123 -1q1 -4 -16.5 -12t-17.5 -20l-1 -230q0 -68 66 -123q63 -53 133 -53t133.5 54t63.5 123v228q0 13 -16 21q-24 11 -26 13
h134zM382 549q-8 -2 -13 -2q-22 0 -63 31q-56 42 -61 45h66z" />
    <glyph glyph-name="circumflex" unicode="&#x2c6;" horiz-adv-x="212" 
d="M236 390q-2 0 -6 -0.5t-6 -1.5q-25 0 -69 35q-6 -2 -28.5 -18t-26.5 -16h-33l71 76h27z" />
    <glyph glyph-name="tilde" unicode="&#x2dc;" horiz-adv-x="226" 
d="M251 434q0 -14 -21 -30t-36 -16q-23 -1 -62 36h-12q-14 0 -25 -32h-28v13q0 16 20 31.5t37 15.5q21 0 35 -11.5l28 -23.5h12q6 0 15.5 12.5t8.5 18.5h28v-14z" />
    <glyph glyph-name="macron" unicode="&#xaf;" horiz-adv-x="175" 
d="M171 421h-158v37h158v-37z" />
    <glyph glyph-name="macron" unicode="&#x2c9;" horiz-adv-x="175" 
d="M171 421h-158v37h158v-37z" />
    <glyph glyph-name="cedilla" unicode="&#xb8;" horiz-adv-x="166" 
d="M185 -40l-52 -37q-36 -25 -55 -25q-11 0 -18 4l66 72q20 -5 59 -14z" />
    <glyph glyph-name="Scaron" unicode="&#x160;" horiz-adv-x="353" 
d="M379 126q0 -60 -48 -99q-44 -37 -105 -37q-50 0 -87.5 29.5t-52.5 78.5l33 14.5l33 14.5l3 -9l-15 -18q6 -29 32 -45.5t57 -16.5q41 0 70 23.5t29 62.5q0 43 -58 78l-107 60q-58 41 -58 96q0 51 38.5 85.5t90.5 34.5q83 0 130 -82q-33 -25 -56 -49l-3 9q0 5 3.5 13
t3.5 12q0 22 -28 37q-24 12 -49 12q-33 0 -56 -19t-23 -52q0 -40 58 -71l107 -57q58 -42 58 -105zM321 627l-71 -75h-27l-71 75l33 1q6 0 48 -35q6 2 28.5 18t26.5 16h33z" />
    <glyph glyph-name="scaron" unicode="&#x161;" horiz-adv-x="275" 
d="M285 94q0 -44 -34.5 -72.5t-80.5 -28.5q-79 0 -105 80q8 4 24.5 11.5t24.5 11.5l3 -8l-12 -12q11 -47 67 -47q30 0 52 17t22 46q0 32 -43 59l-81 46q-43 30 -43 72q0 38 29 63.5t68 25.5q62 0 97 -61q-22 -16 -42 -36q0 1 -0.5 3t-1.5 3q0 4 2.5 9.5t2.5 8.5q0 17 -21 28
q-17 10 -36 10q-25 0 -42 -14t-17 -39q0 -30 44 -54l80 -43q43 -31 43 -79zM248 460l-71 -75h-27l-71 75l33 1q6 0 48 -35q6 2 28.5 18t26.5 16h33z" />
    <glyph glyph-name="brokenbar" unicode="&#xa6;" horiz-adv-x="116" 
d="M101 220h-15v318h15v-318zM101 -168h-15v320h15v-320z" />
    <glyph glyph-name="Eth" unicode="&#xd0;" horiz-adv-x="491" 
d="M513 234q0 -90 -66 -162t-156 -72l-202 1q3 7 24 12q18 5 18 21v202h-44l-1 49q2 -1 21 -3q8 0 24 2v154q0 11 -13.5 18.5t-24.5 5.5l-4 12h173q105 0 178 -68t73 -172zM461 232q0 66 -48 127q-52 64 -117 64h-115v-139h68v-47h-68v-189h115q65 0 116 61q49 57 49 123z
" />
    <glyph glyph-name="eth" unicode="&#xf0;" horiz-adv-x="339" 
d="M363 153q0 -64 -46 -108.5t-110 -44.5q-62 0 -107.5 45.5t-45.5 107.5q0 66 43 109t110 49l-47 46q-10 -12 -34 -26l-20 21q5 5 15.5 14.5t15.5 14.5l-34 33h-15q-7 0 -20 -13l-7 9l91 83l4 -11l-16 -19v-9q0 -6 33 -39l52 37l24 -24l-48 -38l102 -109q60 -69 60 -128z
M315 153q0 43 -32.5 75t-75.5 32q-44 0 -76 -31.5t-32 -74.5t32.5 -75.5t74.5 -32.5q44 0 76.5 32t32.5 75z" />
    <glyph glyph-name="Yacute" unicode="&#xdd;" horiz-adv-x="522" 
d="M580 409l-9 -5q-7 9 -25 17q-24 -11 -102 -90l-103 -107l-1 -191q0 -10 15 -18q22 -12 24 -14l-130 1q2 6 23 12q18 4 18 20v190l-203 196q-7 -2 -28 -16l-8 9l91 90l4 -11q-11 -11 -13 -25q0 -14 81 -95q68 -68 102 -97l58 56q53 51 82 82q41 44 41 54t-13 25l4 11z
M441 632l-103 -75h-34l71 75h66z" />
    <glyph glyph-name="yacute" unicode="&#xfd;" horiz-adv-x="399" 
d="M435 307l-5 -4q-7 9 -21 12q-17 -7 -76 -67l-77 -80l-1 -143q0 -8 11 -14q17 -9 18 -10l-98 -1q2 5 16.5 9t14.5 16v143l-151 147q-8 -2 -22 -12l-6 7l69 67l3 -8q-10 -10 -10 -19q0 -10 61 -72q45 -45 76 -73l75 74q60 60 60 71q0 8 -9 19l3 8zM341 464l-103 -75h-34
l71 75h66z" />
    <glyph glyph-name="Thorn" unicode="&#xde;" horiz-adv-x="373" 
d="M392 275q0 -47 -39 -94q-40 -50 -87 -50h-85v-98q0 -11 17 -19q22 -10 25 -13h-133q13 6 25 13q16 8 16 20l-1 407q0 13 -16 20q-21 9 -25 13h134q-4 -5 -25 -12q-17 -6 -17 -20q0 -1 3 -25h81q-6 0 30 -8q44 -14 70.5 -50.5t26.5 -83.5zM341 276q0 33 -25 63.5t-57 30.5
h-77v-190l71 -1q34 0 61 31t27 66z" />
    <glyph glyph-name="thorn" unicode="&#xfe;" horiz-adv-x="246" 
d="M274 196q0 -54 -41 -81q-34 -23 -88 -23q-12 0 -24 1q0 -76 3 -77.5t26 -14.5h-89q28 14 28 26l-2 289q-8 8 -26 14h86q0 -3 -17 -9q-11 -9 -11 -19l1 -7l19 1q55 3 92 -20q43 -27 43 -80zM241 193q0 23 -18.5 43.5t-40.5 20.5h-62v-130h62q20 0 39.5 23t19.5 43z" />
    <glyph glyph-name="minus" unicode="&#xad;" horiz-adv-x="452" 
d="M442 182q-6 3 -12 3q0 38 -21 38h-260q-12 0 -19 -17q-8 -22 -11 -24v130q4 -3 12 -24q6 -17 17 -17h260q11 0 18 13t4 24l12 4v-130z" />
    <glyph glyph-name="minus" unicode="&#x2212;" horiz-adv-x="452" 
d="M442 182q-6 3 -12 3q0 38 -21 38h-260q-12 0 -19 -17q-8 -22 -11 -24v130q4 -3 12 -24q6 -17 17 -17h260q11 0 18 13t4 24l12 4v-130z" />
    <glyph glyph-name="multiply" unicode="&#xd7;" horiz-adv-x="371" 
d="M392 183l-85 -87q-1 1 -7 10q8 10 15 23v9l-75 75q-50 -50 -71 -77q6 -19 16 -29q-4 -4 -4 -11l-89 88h4q7 0 19 -4.5t20 -4.5l75 71l-40 42q-30 31 -42 31q-7 0 -28 -13l-8 4l89 88q0 -7 4 -10q-6 -5 -17 -23q4 -18 32 -45l42 -39q50 46 73 77q-5 18 -16 30q2 2 4.5 5.5
t3.5 4.5l84 -88q-4 -4 -11 -4q-12 12 -23 12q-13 0 -41 -29q-20 -19 -39 -39q59 -75 88 -75q3 4 19 13z" />
    <glyph glyph-name="onesuperior" unicode="&#xb9;" horiz-adv-x="136" 
d="M141 619l-66 -1q1 -1 12 -6q8 -3 8 -10l1 -203q0 -6 -7.5 -9.5l-13.5 -6.5h67q-1 2 -11 6t-10 10v204q0 6 9.5 10.5t10.5 5.5z" />
    <glyph glyph-name="twosuperior" unicode="&#xb2;" horiz-adv-x="197" 
d="M219 382v45q-1 -1 -6 -11t-10 -10l-92 2l64 64q41 44 41 75q0 33 -21.5 55t-54.5 22q-26 0 -51 -20t-25 -46v-24h44q-6 4 -19 12q0 23 14.5 38.5t37.5 15.5q21 0 35.5 -15.5t14.5 -36.5q0 -18 -14.5 -35.5t-125.5 -130.5h168z" />
    <glyph glyph-name="threesuperior" unicode="&#xb3;" horiz-adv-x="215" 
d="M226 618h-154v-45l6.5 13.5t8.5 7.5h88l-70 -94q14 3 27 3q59 0 59 -52q0 -20 -15.5 -36t-36.5 -16q-17 0 -34.5 14t-17.5 30v12q3 2 9.5 5.5t9.5 5.5h-42l-1 -24q-1 -26 24.5 -46.5t51.5 -20.5q32 0 54.5 22.5t22.5 54.5q0 29 -16 46q-10 12 -40 27l-3 3z" />
    <glyph glyph-name="onehalf" unicode="&#xbd;" horiz-adv-x="398" 
d="M119 543l-66 -1q1 -1 12 -6q8 -3 8 -10v-203q0 -6 -7.5 -10l-13.5 -7l67 1q-1 2 -11 6t-10 10v204q0 6 8 10zM349 480h-44l-284 -471h40zM423 19l-1 44q-1 -1 -6 -11t-10 -10l-91 2l64 64q40 44 40 76q0 33 -21.5 54.5t-54.5 21.5q-26 0 -51 -20t-25 -46v-24l44 1l-18 12
q0 22 14 38t37 16q21 0 35.5 -15.5t15.5 -37.5q0 -17 -16 -35q-21 -23 -125 -130h169z" />
    <glyph glyph-name="onequarter" unicode="&#xbc;" horiz-adv-x="369" 
d="M399 71v66q-1 -1 -5 -11t-10 -10h-28v165l-133 -189h107v-42q0 -6 -7.5 -10l-13.5 -7l67 1q-2 2 -11.5 6t-9.5 9v43l30 -1q6 0 9 -9.5t5 -10.5zM329 116h-60l60 87v-87zM119 543l-66 -1q1 -1 12 -6q8 -3 8 -10v-203q0 -6 -7.5 -10l-13.5 -7l67 1q-1 2 -11 6t-10 10v204
q0 6 8 10zM349 480h-44l-284 -471h40z" />
    <glyph glyph-name="threequarters" unicode="&#xbe;" horiz-adv-x="413" 
d="M398 479h-43l-284 -470h40zM433 59v65q-1 -1 -5 -11t-10 -10h-28v166l-133 -189h106l1 -42q0 -6 -7.5 -10l-13.5 -7h67q-1 2 -11 6t-10 10v42h30q6 0 9 -8q3 -11 5 -12zM363 103h-60l60 88v-88zM188 516h-154v-45l6.5 13.5t8.5 7.5h88l-70 -94q14 3 27 3q59 0 59 -53
q0 -20 -15.5 -35.5t-35.5 -15.5q-17 0 -34.5 14t-17.5 30v11q7 4 19 12h-43v-25q0 -26 25 -46t51 -20q32 0 54.5 22.5t22.5 54.5q0 29 -16 46q-10 12 -40 27l-3 3z" />
    <glyph glyph-name="Lslash" unicode="&#x141;" horiz-adv-x="413" 
d="M439 -41q-5 2 -15 23q-9 18 -22 18h-186l-50 -44v293q-36 -14 -54 -23l1 33q38 14 56 24v158q0 13 -16 20q-21 8 -25 13h133q-3 -4 -22.5 -12.5t-19.5 -21.5q0 -46 4 -138q36 14 54 23l-1 -34q-38 -14 -57 -23v-220l184 -1q13 0 20 17q10 23 12 25z" />
    <glyph glyph-name="lslash" unicode="&#x142;" horiz-adv-x="317" 
d="M329 -31q-3 2 -10 16.5t-17 14.5h-140l-37 -33v219q-28 -10 -41 -16v25q15 5 43 17l-1 118q0 10 -12 16q-16 6 -18 9l99 1q-3 -4 -16.5 -9.5t-13.5 -20.5l-2 -97q15 4 44 14l1 -25q-30 -10 -43 -17v-165h136q10 0 17 14.5t9 16.5z" />
    <glyph glyph-name="Zcaron" unicode="&#x17d;" horiz-adv-x="443" 
d="M458 -41q-3 2 -13 24q-8 17 -20 17h-329q265 424 265 423q0 1 -4 1l-231 -1q-13 0 -21 -16q-10 -23 -12 -25v131q2 -2 13 -25q8 -17 20 -17h326l-264 -424l237 1q14 0 21 17q10 22 12 24v-130zM363 626l-71 -75h-27l-71 75l33 1q6 0 48 -35q6 2 28.5 18t26.5 16h33z" />
    <glyph glyph-name="zcaron" unicode="&#x17e;" horiz-adv-x="316" 
d="M343 -31q-2 2 -9 18q-6 13 -15 13l-247 1q199 318 199 316q-1 1 -3 1h-173q-10 0 -16 -12q-8 -18 -9 -19v97q2 -1 10 -18q6 -13 15 -13h244l-198 -317h178q10 0 15 13q8 17 9 18v-98zM283 464l-71 -75h-27l-71 75l33 1q6 0 48 -35q6 2 28.5 18t26.5 16h33z" />
    <glyph glyph-name="fraction" unicode="&#x2044;" horiz-adv-x="286" 
d="M318 471l-287 -470h-40l284 470h43z" />
    <glyph glyph-name="fi" unicode="&#xf001;" horiz-adv-x="410" 
d="M307 287l-5 3q0 6 -6 22q-6 6 -11 6h-127v-110l125 -1q8 0 22 32v-98q-4 2 -9 18q-5 13 -13 13h-126v-169l-39 -36v206q-16 -1 -21 -14q-6 -16 -8 -18v97q4 -2 8 -14.5t14 -15.5l9 2v143h165q8 0 22 32v-98zM434 355q-9 -4 -20 -9.5t-11 -14.5l1 -306q0 -9 12 -14
q16 -7 18 -10h-100q9 5 20 10.5t11 13.5v305q0 11 -12 16q-18 8 -19 9h100z" />
    <glyph glyph-name="fl" unicode="&#xf002;" horiz-adv-x="545" 
d="M307 287l-5 3q0 6 -6 22q-6 6 -11 6h-127v-110l125 -1q8 0 22 32v-98q-4 2 -9 18q-5 13 -13 13h-126v-169l-39 -36v206q-16 -1 -21 -14q-6 -16 -8 -18v97q4 -2 8 -14.5t14 -15.5l9 2v143h165q8 0 22 32v-98zM557 -31q-4 4 -10 19q-4 12 -12 12h-140l-35 -33v364
q0 10 -12 15q-16 6 -19 9l100 1q-2 -5 -16.5 -9.5t-14.5 -15.5v-295h134q10 0 16 13q8 17 9 18v-98z" />
    <glyph glyph-name="apple" unicode="&#xf000;" horiz-adv-x="1530" 
d="M1700 686q0 -17 -11 -23q-14 -8 -55 -16q-54 -12 -58 -13q-103 -30 -222 -86q-198 -93 -291 -178q-17 -19 -35 -37q-25 -27 -38 -27q-18 0 -32 11t-14 29q0 6 18 84q-32 -10 -76 -55q-48 -48 -82 -63v44q41 99 50 188q0 16 7 40q6 8 27 8q30 0 37 -29q1 -27 3 -55
q24 -1 54.5 13.5t35.5 14.5q38 0 38 -48q0 -12 -4 -36q149 91 302 168q223 112 308 112q38 0 38 -46zM1034 183q-199 0 -413 -60l-393 -120v50l28 56q-127 -34 -270 -118q-136 -81 -238 -178q-11 4 -28.5 17.5t-17.5 22.5q0 27 191 144q161 98 229 130l179 83q53 27 92 67
q19 19 131 152q-15 12 -66 31t-72 33q-34 23 -34 54q0 54 87 102q78 42 137 42l134 -1q34 -34 34 -43q0 -22 -33 -22q-12 0 -37 3t-38 3q-110 0 -200 -84q20 -18 75 -32q49 -14 81 -14q4 0 190.5 137t213.5 137q20 0 26 -5.5t6 -24.5v-8q0 -15 -99 -86l-119 -83
q-67 -53 -106 -102q72 -65 72 -93q0 -72 -97 -119q-42 -20 -185 -60q-104 -30 -112 -57h3q10 0 103 28l112 34q226 63 434 84q3 -19 6 -58q1 -19 -6 -42zM688 355q-43 40 -68 40q-8 0 -59 -48q-56 -55 -65 -61q91 11 192 69zM920 63q-8 -42 -64 -42q-47 0 -47 36v4h38
q3 -12 16 -12q18 0 18 10q0 4 -30.5 13t-30.5 32q0 21 20 34q17 10 40 10q45 0 45 -38h-38l-5 8q-6 3 -9 3q-14 0 -14 -9q0 -7 25.5 -13.5t32.5 -17.5l-2 20h30l5 -44l19 44h34l4 -44l14 32h32q-2 -1 -34 -65h-34l-4 51l-22 -51h-34zM1244 60h-68v-3q0 -14 15 -14q10 0 15 8
h33q-13 -30 -53 -30q-44 0 -44 37q0 16 10 31l-13 1q-5 -30 -5 -35q0 -6 10 -6l-5 -26l-13 -1q-29 -2 -29 17q0 2 9 50h-20l-12 -65h-34l11 64l1 1h16l4 20h-17q5 36 41 36h15l-3 -22q-16 0 -18 -14h20l4 28h34l-4 -28h16l-2 -12q20 18 44 18q43 0 44 -43q0 -4 -2 -12z
M1180 78h32v1q2 14 -14 14q-15 0 -18 -15z" />
    <glyph glyph-name="dotlessi" unicode="&#x131;" horiz-adv-x="144" 
d="M157 320q-2 -2 -17 -9q-11 -5 -11 -13v-276q0 -7 11 -12q15 -7 17 -9h-90q9 4 18.5 9t9.5 13l-1 274q0 9 -11 14q-14 7 -16 9h90z" />
    <glyph glyph-name="breve" unicode="&#x2d8;" horiz-adv-x="274" 
d="M274 464q-37 -75 -104 -75q-31 0 -60.5 22.5t-42.5 52.5l35 -2q29 -38 67 -38q44 0 71 40h34z" />
    <glyph glyph-name="dotaccent" unicode="&#x2d9;" horiz-adv-x="154" 
d="M153 457l-65 -68l-66 65l66 68z" />
    <glyph glyph-name="ring" unicode="&#x2da;" horiz-adv-x="161" 
d="M178 446q0 -25 -18.5 -44.5t-43.5 -19.5t-43.5 19.5t-18.5 45.5q0 25 18.5 44t42.5 19q25 0 44 -19.5t19 -44.5zM151 446q0 13 -10 24t-23 11t-23.5 -11t-10.5 -24t10 -24.5t23 -11.5t23.5 11t10.5 25z" />
    <glyph glyph-name="hungarumlaut" unicode="&#x2dd;" horiz-adv-x="278" 
d="M309 489l-56 -59q-35 -37 -68 -37l61 88q21 2 63 8zM191 490q-3 -2 -57 -57q-39 -41 -62 -40l-5 1l58 88z" />
    <glyph glyph-name="ogonek" unicode="&#x2db;" horiz-adv-x="166" 
d="M185 -40l-52 -37q-36 -25 -55 -25q-11 0 -18 4l66 72q20 -5 59 -14z" />
    <glyph glyph-name="caron" unicode="&#x2c7;" horiz-adv-x="229" 
d="M236 464l-71 -75h-27l-71 75l33 1q6 0 48 -35q6 2 28.5 18t26.5 16h33z" />
    <glyph glyph-name="glyph233" horiz-adv-x="500" 
 />
  </font>
</defs>
</svg>
